%TF.GenerationSoftware,KiCad,Pcbnew,7.0.8-7.0.8~ubuntu22.04.1*%
%TF.CreationDate,2023-11-02T18:58:55-04:00*%
%TF.ProjectId,kicad_psu,6b696361-645f-4707-9375-2e6b69636164,rev?*%
%TF.SameCoordinates,Original*%
%TF.FileFunction,Legend,Top*%
%TF.FilePolarity,Positive*%
%FSLAX46Y46*%
G04 Gerber Fmt 4.6, Leading zero omitted, Abs format (unit mm)*
G04 Created by KiCad (PCBNEW 7.0.8-7.0.8~ubuntu22.04.1) date 2023-11-02 18:58:55*
%MOMM*%
%LPD*%
G01*
G04 APERTURE LIST*
%ADD10C,0.150000*%
%ADD11C,0.100000*%
%ADD12C,0.120000*%
G04 APERTURE END LIST*
D10*
X78573333Y-104499580D02*
X78525714Y-104547200D01*
X78525714Y-104547200D02*
X78382857Y-104594819D01*
X78382857Y-104594819D02*
X78287619Y-104594819D01*
X78287619Y-104594819D02*
X78144762Y-104547200D01*
X78144762Y-104547200D02*
X78049524Y-104451961D01*
X78049524Y-104451961D02*
X78001905Y-104356723D01*
X78001905Y-104356723D02*
X77954286Y-104166247D01*
X77954286Y-104166247D02*
X77954286Y-104023390D01*
X77954286Y-104023390D02*
X78001905Y-103832914D01*
X78001905Y-103832914D02*
X78049524Y-103737676D01*
X78049524Y-103737676D02*
X78144762Y-103642438D01*
X78144762Y-103642438D02*
X78287619Y-103594819D01*
X78287619Y-103594819D02*
X78382857Y-103594819D01*
X78382857Y-103594819D02*
X78525714Y-103642438D01*
X78525714Y-103642438D02*
X78573333Y-103690057D01*
X78906667Y-103594819D02*
X79525714Y-103594819D01*
X79525714Y-103594819D02*
X79192381Y-103975771D01*
X79192381Y-103975771D02*
X79335238Y-103975771D01*
X79335238Y-103975771D02*
X79430476Y-104023390D01*
X79430476Y-104023390D02*
X79478095Y-104071009D01*
X79478095Y-104071009D02*
X79525714Y-104166247D01*
X79525714Y-104166247D02*
X79525714Y-104404342D01*
X79525714Y-104404342D02*
X79478095Y-104499580D01*
X79478095Y-104499580D02*
X79430476Y-104547200D01*
X79430476Y-104547200D02*
X79335238Y-104594819D01*
X79335238Y-104594819D02*
X79049524Y-104594819D01*
X79049524Y-104594819D02*
X78954286Y-104547200D01*
X78954286Y-104547200D02*
X78906667Y-104499580D01*
D11*
X82252381Y-105919895D02*
X81966667Y-105919895D01*
X82109524Y-105919895D02*
X82109524Y-105119895D01*
X82109524Y-105119895D02*
X82061905Y-105234180D01*
X82061905Y-105234180D02*
X82014286Y-105310371D01*
X82014286Y-105310371D02*
X81966667Y-105348466D01*
X82680952Y-105386561D02*
X82680952Y-105919895D01*
X82466666Y-105386561D02*
X82466666Y-105805609D01*
X82466666Y-105805609D02*
X82490476Y-105881800D01*
X82490476Y-105881800D02*
X82538095Y-105919895D01*
X82538095Y-105919895D02*
X82609523Y-105919895D01*
X82609523Y-105919895D02*
X82657142Y-105881800D01*
X82657142Y-105881800D02*
X82680952Y-105843704D01*
X83085714Y-105500847D02*
X82919047Y-105500847D01*
X82919047Y-105919895D02*
X82919047Y-105119895D01*
X82919047Y-105119895D02*
X83157142Y-105119895D01*
D10*
X78593333Y-71334580D02*
X78545714Y-71382200D01*
X78545714Y-71382200D02*
X78402857Y-71429819D01*
X78402857Y-71429819D02*
X78307619Y-71429819D01*
X78307619Y-71429819D02*
X78164762Y-71382200D01*
X78164762Y-71382200D02*
X78069524Y-71286961D01*
X78069524Y-71286961D02*
X78021905Y-71191723D01*
X78021905Y-71191723D02*
X77974286Y-71001247D01*
X77974286Y-71001247D02*
X77974286Y-70858390D01*
X77974286Y-70858390D02*
X78021905Y-70667914D01*
X78021905Y-70667914D02*
X78069524Y-70572676D01*
X78069524Y-70572676D02*
X78164762Y-70477438D01*
X78164762Y-70477438D02*
X78307619Y-70429819D01*
X78307619Y-70429819D02*
X78402857Y-70429819D01*
X78402857Y-70429819D02*
X78545714Y-70477438D01*
X78545714Y-70477438D02*
X78593333Y-70525057D01*
X78974286Y-70525057D02*
X79021905Y-70477438D01*
X79021905Y-70477438D02*
X79117143Y-70429819D01*
X79117143Y-70429819D02*
X79355238Y-70429819D01*
X79355238Y-70429819D02*
X79450476Y-70477438D01*
X79450476Y-70477438D02*
X79498095Y-70525057D01*
X79498095Y-70525057D02*
X79545714Y-70620295D01*
X79545714Y-70620295D02*
X79545714Y-70715533D01*
X79545714Y-70715533D02*
X79498095Y-70858390D01*
X79498095Y-70858390D02*
X78926667Y-71429819D01*
X78926667Y-71429819D02*
X79545714Y-71429819D01*
D11*
X77938572Y-74639895D02*
X77986191Y-74639895D01*
X77986191Y-74639895D02*
X78033810Y-74677990D01*
X78033810Y-74677990D02*
X78057620Y-74716085D01*
X78057620Y-74716085D02*
X78081429Y-74792276D01*
X78081429Y-74792276D02*
X78105239Y-74944657D01*
X78105239Y-74944657D02*
X78105239Y-75135133D01*
X78105239Y-75135133D02*
X78081429Y-75287514D01*
X78081429Y-75287514D02*
X78057620Y-75363704D01*
X78057620Y-75363704D02*
X78033810Y-75401800D01*
X78033810Y-75401800D02*
X77986191Y-75439895D01*
X77986191Y-75439895D02*
X77938572Y-75439895D01*
X77938572Y-75439895D02*
X77890953Y-75401800D01*
X77890953Y-75401800D02*
X77867144Y-75363704D01*
X77867144Y-75363704D02*
X77843334Y-75287514D01*
X77843334Y-75287514D02*
X77819525Y-75135133D01*
X77819525Y-75135133D02*
X77819525Y-74944657D01*
X77819525Y-74944657D02*
X77843334Y-74792276D01*
X77843334Y-74792276D02*
X77867144Y-74716085D01*
X77867144Y-74716085D02*
X77890953Y-74677990D01*
X77890953Y-74677990D02*
X77938572Y-74639895D01*
X78319524Y-75363704D02*
X78343334Y-75401800D01*
X78343334Y-75401800D02*
X78319524Y-75439895D01*
X78319524Y-75439895D02*
X78295715Y-75401800D01*
X78295715Y-75401800D02*
X78319524Y-75363704D01*
X78319524Y-75363704D02*
X78319524Y-75439895D01*
X78819524Y-75439895D02*
X78533810Y-75439895D01*
X78676667Y-75439895D02*
X78676667Y-74639895D01*
X78676667Y-74639895D02*
X78629048Y-74754180D01*
X78629048Y-74754180D02*
X78581429Y-74830371D01*
X78581429Y-74830371D02*
X78533810Y-74868466D01*
X79248095Y-74906561D02*
X79248095Y-75439895D01*
X79033809Y-74906561D02*
X79033809Y-75325609D01*
X79033809Y-75325609D02*
X79057619Y-75401800D01*
X79057619Y-75401800D02*
X79105238Y-75439895D01*
X79105238Y-75439895D02*
X79176666Y-75439895D01*
X79176666Y-75439895D02*
X79224285Y-75401800D01*
X79224285Y-75401800D02*
X79248095Y-75363704D01*
X79652857Y-75020847D02*
X79486190Y-75020847D01*
X79486190Y-75439895D02*
X79486190Y-74639895D01*
X79486190Y-74639895D02*
X79724285Y-74639895D01*
D10*
X91908333Y-91894819D02*
X91575000Y-91418628D01*
X91336905Y-91894819D02*
X91336905Y-90894819D01*
X91336905Y-90894819D02*
X91717857Y-90894819D01*
X91717857Y-90894819D02*
X91813095Y-90942438D01*
X91813095Y-90942438D02*
X91860714Y-90990057D01*
X91860714Y-90990057D02*
X91908333Y-91085295D01*
X91908333Y-91085295D02*
X91908333Y-91228152D01*
X91908333Y-91228152D02*
X91860714Y-91323390D01*
X91860714Y-91323390D02*
X91813095Y-91371009D01*
X91813095Y-91371009D02*
X91717857Y-91418628D01*
X91717857Y-91418628D02*
X91336905Y-91418628D01*
X92860714Y-91894819D02*
X92289286Y-91894819D01*
X92575000Y-91894819D02*
X92575000Y-90894819D01*
X92575000Y-90894819D02*
X92479762Y-91037676D01*
X92479762Y-91037676D02*
X92384524Y-91132914D01*
X92384524Y-91132914D02*
X92289286Y-91180533D01*
D11*
X93357143Y-90989895D02*
X93666667Y-90989895D01*
X93666667Y-90989895D02*
X93500000Y-91294657D01*
X93500000Y-91294657D02*
X93571429Y-91294657D01*
X93571429Y-91294657D02*
X93619048Y-91332752D01*
X93619048Y-91332752D02*
X93642857Y-91370847D01*
X93642857Y-91370847D02*
X93666667Y-91447038D01*
X93666667Y-91447038D02*
X93666667Y-91637514D01*
X93666667Y-91637514D02*
X93642857Y-91713704D01*
X93642857Y-91713704D02*
X93619048Y-91751800D01*
X93619048Y-91751800D02*
X93571429Y-91789895D01*
X93571429Y-91789895D02*
X93428572Y-91789895D01*
X93428572Y-91789895D02*
X93380953Y-91751800D01*
X93380953Y-91751800D02*
X93357143Y-91713704D01*
X93833333Y-90989895D02*
X94142857Y-90989895D01*
X94142857Y-90989895D02*
X93976190Y-91294657D01*
X93976190Y-91294657D02*
X94047619Y-91294657D01*
X94047619Y-91294657D02*
X94095238Y-91332752D01*
X94095238Y-91332752D02*
X94119047Y-91370847D01*
X94119047Y-91370847D02*
X94142857Y-91447038D01*
X94142857Y-91447038D02*
X94142857Y-91637514D01*
X94142857Y-91637514D02*
X94119047Y-91713704D01*
X94119047Y-91713704D02*
X94095238Y-91751800D01*
X94095238Y-91751800D02*
X94047619Y-91789895D01*
X94047619Y-91789895D02*
X93904762Y-91789895D01*
X93904762Y-91789895D02*
X93857143Y-91751800D01*
X93857143Y-91751800D02*
X93833333Y-91713704D01*
X94452380Y-90989895D02*
X94499999Y-90989895D01*
X94499999Y-90989895D02*
X94547618Y-91027990D01*
X94547618Y-91027990D02*
X94571428Y-91066085D01*
X94571428Y-91066085D02*
X94595237Y-91142276D01*
X94595237Y-91142276D02*
X94619047Y-91294657D01*
X94619047Y-91294657D02*
X94619047Y-91485133D01*
X94619047Y-91485133D02*
X94595237Y-91637514D01*
X94595237Y-91637514D02*
X94571428Y-91713704D01*
X94571428Y-91713704D02*
X94547618Y-91751800D01*
X94547618Y-91751800D02*
X94499999Y-91789895D01*
X94499999Y-91789895D02*
X94452380Y-91789895D01*
X94452380Y-91789895D02*
X94404761Y-91751800D01*
X94404761Y-91751800D02*
X94380952Y-91713704D01*
X94380952Y-91713704D02*
X94357142Y-91637514D01*
X94357142Y-91637514D02*
X94333333Y-91485133D01*
X94333333Y-91485133D02*
X94333333Y-91294657D01*
X94333333Y-91294657D02*
X94357142Y-91142276D01*
X94357142Y-91142276D02*
X94380952Y-91066085D01*
X94380952Y-91066085D02*
X94404761Y-91027990D01*
X94404761Y-91027990D02*
X94452380Y-90989895D01*
D10*
X83653333Y-71334580D02*
X83605714Y-71382200D01*
X83605714Y-71382200D02*
X83462857Y-71429819D01*
X83462857Y-71429819D02*
X83367619Y-71429819D01*
X83367619Y-71429819D02*
X83224762Y-71382200D01*
X83224762Y-71382200D02*
X83129524Y-71286961D01*
X83129524Y-71286961D02*
X83081905Y-71191723D01*
X83081905Y-71191723D02*
X83034286Y-71001247D01*
X83034286Y-71001247D02*
X83034286Y-70858390D01*
X83034286Y-70858390D02*
X83081905Y-70667914D01*
X83081905Y-70667914D02*
X83129524Y-70572676D01*
X83129524Y-70572676D02*
X83224762Y-70477438D01*
X83224762Y-70477438D02*
X83367619Y-70429819D01*
X83367619Y-70429819D02*
X83462857Y-70429819D01*
X83462857Y-70429819D02*
X83605714Y-70477438D01*
X83605714Y-70477438D02*
X83653333Y-70525057D01*
X84605714Y-71429819D02*
X84034286Y-71429819D01*
X84320000Y-71429819D02*
X84320000Y-70429819D01*
X84320000Y-70429819D02*
X84224762Y-70572676D01*
X84224762Y-70572676D02*
X84129524Y-70667914D01*
X84129524Y-70667914D02*
X84034286Y-70715533D01*
D11*
X83284286Y-75439895D02*
X82998572Y-75439895D01*
X83141429Y-75439895D02*
X83141429Y-74639895D01*
X83141429Y-74639895D02*
X83093810Y-74754180D01*
X83093810Y-74754180D02*
X83046191Y-74830371D01*
X83046191Y-74830371D02*
X82998572Y-74868466D01*
X83593809Y-74639895D02*
X83641428Y-74639895D01*
X83641428Y-74639895D02*
X83689047Y-74677990D01*
X83689047Y-74677990D02*
X83712857Y-74716085D01*
X83712857Y-74716085D02*
X83736666Y-74792276D01*
X83736666Y-74792276D02*
X83760476Y-74944657D01*
X83760476Y-74944657D02*
X83760476Y-75135133D01*
X83760476Y-75135133D02*
X83736666Y-75287514D01*
X83736666Y-75287514D02*
X83712857Y-75363704D01*
X83712857Y-75363704D02*
X83689047Y-75401800D01*
X83689047Y-75401800D02*
X83641428Y-75439895D01*
X83641428Y-75439895D02*
X83593809Y-75439895D01*
X83593809Y-75439895D02*
X83546190Y-75401800D01*
X83546190Y-75401800D02*
X83522381Y-75363704D01*
X83522381Y-75363704D02*
X83498571Y-75287514D01*
X83498571Y-75287514D02*
X83474762Y-75135133D01*
X83474762Y-75135133D02*
X83474762Y-74944657D01*
X83474762Y-74944657D02*
X83498571Y-74792276D01*
X83498571Y-74792276D02*
X83522381Y-74716085D01*
X83522381Y-74716085D02*
X83546190Y-74677990D01*
X83546190Y-74677990D02*
X83593809Y-74639895D01*
X84189047Y-74906561D02*
X84189047Y-75439895D01*
X83974761Y-74906561D02*
X83974761Y-75325609D01*
X83974761Y-75325609D02*
X83998571Y-75401800D01*
X83998571Y-75401800D02*
X84046190Y-75439895D01*
X84046190Y-75439895D02*
X84117618Y-75439895D01*
X84117618Y-75439895D02*
X84165237Y-75401800D01*
X84165237Y-75401800D02*
X84189047Y-75363704D01*
X84593809Y-75020847D02*
X84427142Y-75020847D01*
X84427142Y-75439895D02*
X84427142Y-74639895D01*
X84427142Y-74639895D02*
X84665237Y-74639895D01*
D10*
X98726666Y-106134819D02*
X98726666Y-106849104D01*
X98726666Y-106849104D02*
X98679047Y-106991961D01*
X98679047Y-106991961D02*
X98583809Y-107087200D01*
X98583809Y-107087200D02*
X98440952Y-107134819D01*
X98440952Y-107134819D02*
X98345714Y-107134819D01*
X99631428Y-106134819D02*
X99440952Y-106134819D01*
X99440952Y-106134819D02*
X99345714Y-106182438D01*
X99345714Y-106182438D02*
X99298095Y-106230057D01*
X99298095Y-106230057D02*
X99202857Y-106372914D01*
X99202857Y-106372914D02*
X99155238Y-106563390D01*
X99155238Y-106563390D02*
X99155238Y-106944342D01*
X99155238Y-106944342D02*
X99202857Y-107039580D01*
X99202857Y-107039580D02*
X99250476Y-107087200D01*
X99250476Y-107087200D02*
X99345714Y-107134819D01*
X99345714Y-107134819D02*
X99536190Y-107134819D01*
X99536190Y-107134819D02*
X99631428Y-107087200D01*
X99631428Y-107087200D02*
X99679047Y-107039580D01*
X99679047Y-107039580D02*
X99726666Y-106944342D01*
X99726666Y-106944342D02*
X99726666Y-106706247D01*
X99726666Y-106706247D02*
X99679047Y-106611009D01*
X99679047Y-106611009D02*
X99631428Y-106563390D01*
X99631428Y-106563390D02*
X99536190Y-106515771D01*
X99536190Y-106515771D02*
X99345714Y-106515771D01*
X99345714Y-106515771D02*
X99250476Y-106563390D01*
X99250476Y-106563390D02*
X99202857Y-106611009D01*
X99202857Y-106611009D02*
X99155238Y-106706247D01*
D11*
X100618704Y-114414760D02*
X100656800Y-114438569D01*
X100656800Y-114438569D02*
X100694895Y-114509998D01*
X100694895Y-114509998D02*
X100694895Y-114557617D01*
X100694895Y-114557617D02*
X100656800Y-114629045D01*
X100656800Y-114629045D02*
X100580609Y-114676664D01*
X100580609Y-114676664D02*
X100504419Y-114700474D01*
X100504419Y-114700474D02*
X100352038Y-114724283D01*
X100352038Y-114724283D02*
X100237752Y-114724283D01*
X100237752Y-114724283D02*
X100085371Y-114700474D01*
X100085371Y-114700474D02*
X100009180Y-114676664D01*
X100009180Y-114676664D02*
X99932990Y-114629045D01*
X99932990Y-114629045D02*
X99894895Y-114557617D01*
X99894895Y-114557617D02*
X99894895Y-114509998D01*
X99894895Y-114509998D02*
X99932990Y-114438569D01*
X99932990Y-114438569D02*
X99971085Y-114414760D01*
X100694895Y-114129045D02*
X100656800Y-114176664D01*
X100656800Y-114176664D02*
X100618704Y-114200474D01*
X100618704Y-114200474D02*
X100542514Y-114224283D01*
X100542514Y-114224283D02*
X100313942Y-114224283D01*
X100313942Y-114224283D02*
X100237752Y-114200474D01*
X100237752Y-114200474D02*
X100199657Y-114176664D01*
X100199657Y-114176664D02*
X100161561Y-114129045D01*
X100161561Y-114129045D02*
X100161561Y-114057617D01*
X100161561Y-114057617D02*
X100199657Y-114009998D01*
X100199657Y-114009998D02*
X100237752Y-113986188D01*
X100237752Y-113986188D02*
X100313942Y-113962379D01*
X100313942Y-113962379D02*
X100542514Y-113962379D01*
X100542514Y-113962379D02*
X100618704Y-113986188D01*
X100618704Y-113986188D02*
X100656800Y-114009998D01*
X100656800Y-114009998D02*
X100694895Y-114057617D01*
X100694895Y-114057617D02*
X100694895Y-114129045D01*
X100161561Y-113748093D02*
X100694895Y-113748093D01*
X100237752Y-113748093D02*
X100199657Y-113724283D01*
X100199657Y-113724283D02*
X100161561Y-113676664D01*
X100161561Y-113676664D02*
X100161561Y-113605236D01*
X100161561Y-113605236D02*
X100199657Y-113557617D01*
X100199657Y-113557617D02*
X100275847Y-113533807D01*
X100275847Y-113533807D02*
X100694895Y-113533807D01*
X100161561Y-113295712D02*
X100694895Y-113295712D01*
X100237752Y-113295712D02*
X100199657Y-113271902D01*
X100199657Y-113271902D02*
X100161561Y-113224283D01*
X100161561Y-113224283D02*
X100161561Y-113152855D01*
X100161561Y-113152855D02*
X100199657Y-113105236D01*
X100199657Y-113105236D02*
X100275847Y-113081426D01*
X100275847Y-113081426D02*
X100694895Y-113081426D01*
X100771085Y-112962379D02*
X100771085Y-112581426D01*
X99894895Y-112367141D02*
X99894895Y-112319522D01*
X99894895Y-112319522D02*
X99932990Y-112271903D01*
X99932990Y-112271903D02*
X99971085Y-112248093D01*
X99971085Y-112248093D02*
X100047276Y-112224284D01*
X100047276Y-112224284D02*
X100199657Y-112200474D01*
X100199657Y-112200474D02*
X100390133Y-112200474D01*
X100390133Y-112200474D02*
X100542514Y-112224284D01*
X100542514Y-112224284D02*
X100618704Y-112248093D01*
X100618704Y-112248093D02*
X100656800Y-112271903D01*
X100656800Y-112271903D02*
X100694895Y-112319522D01*
X100694895Y-112319522D02*
X100694895Y-112367141D01*
X100694895Y-112367141D02*
X100656800Y-112414760D01*
X100656800Y-112414760D02*
X100618704Y-112438569D01*
X100618704Y-112438569D02*
X100542514Y-112462379D01*
X100542514Y-112462379D02*
X100390133Y-112486188D01*
X100390133Y-112486188D02*
X100199657Y-112486188D01*
X100199657Y-112486188D02*
X100047276Y-112462379D01*
X100047276Y-112462379D02*
X99971085Y-112438569D01*
X99971085Y-112438569D02*
X99932990Y-112414760D01*
X99932990Y-112414760D02*
X99894895Y-112367141D01*
X100694895Y-111724284D02*
X100694895Y-112009998D01*
X100694895Y-111867141D02*
X99894895Y-111867141D01*
X99894895Y-111867141D02*
X100009180Y-111914760D01*
X100009180Y-111914760D02*
X100085371Y-111962379D01*
X100085371Y-111962379D02*
X100123466Y-112009998D01*
X100694895Y-111557618D02*
X100161561Y-111295713D01*
X100161561Y-111557618D02*
X100694895Y-111295713D01*
X99894895Y-111009999D02*
X99894895Y-110962380D01*
X99894895Y-110962380D02*
X99932990Y-110914761D01*
X99932990Y-110914761D02*
X99971085Y-110890951D01*
X99971085Y-110890951D02*
X100047276Y-110867142D01*
X100047276Y-110867142D02*
X100199657Y-110843332D01*
X100199657Y-110843332D02*
X100390133Y-110843332D01*
X100390133Y-110843332D02*
X100542514Y-110867142D01*
X100542514Y-110867142D02*
X100618704Y-110890951D01*
X100618704Y-110890951D02*
X100656800Y-110914761D01*
X100656800Y-110914761D02*
X100694895Y-110962380D01*
X100694895Y-110962380D02*
X100694895Y-111009999D01*
X100694895Y-111009999D02*
X100656800Y-111057618D01*
X100656800Y-111057618D02*
X100618704Y-111081427D01*
X100618704Y-111081427D02*
X100542514Y-111105237D01*
X100542514Y-111105237D02*
X100390133Y-111129046D01*
X100390133Y-111129046D02*
X100199657Y-111129046D01*
X100199657Y-111129046D02*
X100047276Y-111105237D01*
X100047276Y-111105237D02*
X99971085Y-111081427D01*
X99971085Y-111081427D02*
X99932990Y-111057618D01*
X99932990Y-111057618D02*
X99894895Y-111009999D01*
X99971085Y-110652856D02*
X99932990Y-110629047D01*
X99932990Y-110629047D02*
X99894895Y-110581428D01*
X99894895Y-110581428D02*
X99894895Y-110462380D01*
X99894895Y-110462380D02*
X99932990Y-110414761D01*
X99932990Y-110414761D02*
X99971085Y-110390952D01*
X99971085Y-110390952D02*
X100047276Y-110367142D01*
X100047276Y-110367142D02*
X100123466Y-110367142D01*
X100123466Y-110367142D02*
X100237752Y-110390952D01*
X100237752Y-110390952D02*
X100694895Y-110676666D01*
X100694895Y-110676666D02*
X100694895Y-110367142D01*
X100771085Y-110271905D02*
X100771085Y-109890952D01*
X100694895Y-109771905D02*
X99894895Y-109771905D01*
X99894895Y-109771905D02*
X99894895Y-109581429D01*
X99894895Y-109581429D02*
X99932990Y-109533810D01*
X99932990Y-109533810D02*
X99971085Y-109510000D01*
X99971085Y-109510000D02*
X100047276Y-109486191D01*
X100047276Y-109486191D02*
X100161561Y-109486191D01*
X100161561Y-109486191D02*
X100237752Y-109510000D01*
X100237752Y-109510000D02*
X100275847Y-109533810D01*
X100275847Y-109533810D02*
X100313942Y-109581429D01*
X100313942Y-109581429D02*
X100313942Y-109771905D01*
X100694895Y-109271905D02*
X100161561Y-109271905D01*
X99894895Y-109271905D02*
X99932990Y-109295714D01*
X99932990Y-109295714D02*
X99971085Y-109271905D01*
X99971085Y-109271905D02*
X99932990Y-109248095D01*
X99932990Y-109248095D02*
X99894895Y-109271905D01*
X99894895Y-109271905D02*
X99971085Y-109271905D01*
X100161561Y-109033810D02*
X100694895Y-109033810D01*
X100237752Y-109033810D02*
X100199657Y-109010000D01*
X100199657Y-109010000D02*
X100161561Y-108962381D01*
X100161561Y-108962381D02*
X100161561Y-108890953D01*
X100161561Y-108890953D02*
X100199657Y-108843334D01*
X100199657Y-108843334D02*
X100275847Y-108819524D01*
X100275847Y-108819524D02*
X100694895Y-108819524D01*
D10*
X77784819Y-64468333D02*
X78499104Y-64468333D01*
X78499104Y-64468333D02*
X78641961Y-64515952D01*
X78641961Y-64515952D02*
X78737200Y-64611190D01*
X78737200Y-64611190D02*
X78784819Y-64754047D01*
X78784819Y-64754047D02*
X78784819Y-64849285D01*
X77880057Y-64039761D02*
X77832438Y-63992142D01*
X77832438Y-63992142D02*
X77784819Y-63896904D01*
X77784819Y-63896904D02*
X77784819Y-63658809D01*
X77784819Y-63658809D02*
X77832438Y-63563571D01*
X77832438Y-63563571D02*
X77880057Y-63515952D01*
X77880057Y-63515952D02*
X77975295Y-63468333D01*
X77975295Y-63468333D02*
X78070533Y-63468333D01*
X78070533Y-63468333D02*
X78213390Y-63515952D01*
X78213390Y-63515952D02*
X78784819Y-64087380D01*
X78784819Y-64087380D02*
X78784819Y-63468333D01*
D11*
X79895239Y-66328704D02*
X79871430Y-66366800D01*
X79871430Y-66366800D02*
X79800001Y-66404895D01*
X79800001Y-66404895D02*
X79752382Y-66404895D01*
X79752382Y-66404895D02*
X79680954Y-66366800D01*
X79680954Y-66366800D02*
X79633335Y-66290609D01*
X79633335Y-66290609D02*
X79609525Y-66214419D01*
X79609525Y-66214419D02*
X79585716Y-66062038D01*
X79585716Y-66062038D02*
X79585716Y-65947752D01*
X79585716Y-65947752D02*
X79609525Y-65795371D01*
X79609525Y-65795371D02*
X79633335Y-65719180D01*
X79633335Y-65719180D02*
X79680954Y-65642990D01*
X79680954Y-65642990D02*
X79752382Y-65604895D01*
X79752382Y-65604895D02*
X79800001Y-65604895D01*
X79800001Y-65604895D02*
X79871430Y-65642990D01*
X79871430Y-65642990D02*
X79895239Y-65681085D01*
X80180954Y-66404895D02*
X80133335Y-66366800D01*
X80133335Y-66366800D02*
X80109525Y-66328704D01*
X80109525Y-66328704D02*
X80085716Y-66252514D01*
X80085716Y-66252514D02*
X80085716Y-66023942D01*
X80085716Y-66023942D02*
X80109525Y-65947752D01*
X80109525Y-65947752D02*
X80133335Y-65909657D01*
X80133335Y-65909657D02*
X80180954Y-65871561D01*
X80180954Y-65871561D02*
X80252382Y-65871561D01*
X80252382Y-65871561D02*
X80300001Y-65909657D01*
X80300001Y-65909657D02*
X80323811Y-65947752D01*
X80323811Y-65947752D02*
X80347620Y-66023942D01*
X80347620Y-66023942D02*
X80347620Y-66252514D01*
X80347620Y-66252514D02*
X80323811Y-66328704D01*
X80323811Y-66328704D02*
X80300001Y-66366800D01*
X80300001Y-66366800D02*
X80252382Y-66404895D01*
X80252382Y-66404895D02*
X80180954Y-66404895D01*
X80561906Y-65871561D02*
X80561906Y-66404895D01*
X80561906Y-65947752D02*
X80585716Y-65909657D01*
X80585716Y-65909657D02*
X80633335Y-65871561D01*
X80633335Y-65871561D02*
X80704763Y-65871561D01*
X80704763Y-65871561D02*
X80752382Y-65909657D01*
X80752382Y-65909657D02*
X80776192Y-65985847D01*
X80776192Y-65985847D02*
X80776192Y-66404895D01*
X81014287Y-65871561D02*
X81014287Y-66404895D01*
X81014287Y-65947752D02*
X81038097Y-65909657D01*
X81038097Y-65909657D02*
X81085716Y-65871561D01*
X81085716Y-65871561D02*
X81157144Y-65871561D01*
X81157144Y-65871561D02*
X81204763Y-65909657D01*
X81204763Y-65909657D02*
X81228573Y-65985847D01*
X81228573Y-65985847D02*
X81228573Y-66404895D01*
X81347621Y-66481085D02*
X81728573Y-66481085D01*
X81942858Y-65604895D02*
X81990477Y-65604895D01*
X81990477Y-65604895D02*
X82038096Y-65642990D01*
X82038096Y-65642990D02*
X82061906Y-65681085D01*
X82061906Y-65681085D02*
X82085715Y-65757276D01*
X82085715Y-65757276D02*
X82109525Y-65909657D01*
X82109525Y-65909657D02*
X82109525Y-66100133D01*
X82109525Y-66100133D02*
X82085715Y-66252514D01*
X82085715Y-66252514D02*
X82061906Y-66328704D01*
X82061906Y-66328704D02*
X82038096Y-66366800D01*
X82038096Y-66366800D02*
X81990477Y-66404895D01*
X81990477Y-66404895D02*
X81942858Y-66404895D01*
X81942858Y-66404895D02*
X81895239Y-66366800D01*
X81895239Y-66366800D02*
X81871430Y-66328704D01*
X81871430Y-66328704D02*
X81847620Y-66252514D01*
X81847620Y-66252514D02*
X81823811Y-66100133D01*
X81823811Y-66100133D02*
X81823811Y-65909657D01*
X81823811Y-65909657D02*
X81847620Y-65757276D01*
X81847620Y-65757276D02*
X81871430Y-65681085D01*
X81871430Y-65681085D02*
X81895239Y-65642990D01*
X81895239Y-65642990D02*
X81942858Y-65604895D01*
X82585715Y-66404895D02*
X82300001Y-66404895D01*
X82442858Y-66404895D02*
X82442858Y-65604895D01*
X82442858Y-65604895D02*
X82395239Y-65719180D01*
X82395239Y-65719180D02*
X82347620Y-65795371D01*
X82347620Y-65795371D02*
X82300001Y-65833466D01*
X82752381Y-66404895D02*
X83014286Y-65871561D01*
X82752381Y-65871561D02*
X83014286Y-66404895D01*
X83300000Y-65604895D02*
X83347619Y-65604895D01*
X83347619Y-65604895D02*
X83395238Y-65642990D01*
X83395238Y-65642990D02*
X83419048Y-65681085D01*
X83419048Y-65681085D02*
X83442857Y-65757276D01*
X83442857Y-65757276D02*
X83466667Y-65909657D01*
X83466667Y-65909657D02*
X83466667Y-66100133D01*
X83466667Y-66100133D02*
X83442857Y-66252514D01*
X83442857Y-66252514D02*
X83419048Y-66328704D01*
X83419048Y-66328704D02*
X83395238Y-66366800D01*
X83395238Y-66366800D02*
X83347619Y-66404895D01*
X83347619Y-66404895D02*
X83300000Y-66404895D01*
X83300000Y-66404895D02*
X83252381Y-66366800D01*
X83252381Y-66366800D02*
X83228572Y-66328704D01*
X83228572Y-66328704D02*
X83204762Y-66252514D01*
X83204762Y-66252514D02*
X83180953Y-66100133D01*
X83180953Y-66100133D02*
X83180953Y-65909657D01*
X83180953Y-65909657D02*
X83204762Y-65757276D01*
X83204762Y-65757276D02*
X83228572Y-65681085D01*
X83228572Y-65681085D02*
X83252381Y-65642990D01*
X83252381Y-65642990D02*
X83300000Y-65604895D01*
X83633333Y-65604895D02*
X83942857Y-65604895D01*
X83942857Y-65604895D02*
X83776190Y-65909657D01*
X83776190Y-65909657D02*
X83847619Y-65909657D01*
X83847619Y-65909657D02*
X83895238Y-65947752D01*
X83895238Y-65947752D02*
X83919047Y-65985847D01*
X83919047Y-65985847D02*
X83942857Y-66062038D01*
X83942857Y-66062038D02*
X83942857Y-66252514D01*
X83942857Y-66252514D02*
X83919047Y-66328704D01*
X83919047Y-66328704D02*
X83895238Y-66366800D01*
X83895238Y-66366800D02*
X83847619Y-66404895D01*
X83847619Y-66404895D02*
X83704762Y-66404895D01*
X83704762Y-66404895D02*
X83657143Y-66366800D01*
X83657143Y-66366800D02*
X83633333Y-66328704D01*
X84038095Y-66481085D02*
X84419047Y-66481085D01*
X84538094Y-66404895D02*
X84538094Y-65604895D01*
X84538094Y-65604895D02*
X84728570Y-65604895D01*
X84728570Y-65604895D02*
X84776189Y-65642990D01*
X84776189Y-65642990D02*
X84799999Y-65681085D01*
X84799999Y-65681085D02*
X84823808Y-65757276D01*
X84823808Y-65757276D02*
X84823808Y-65871561D01*
X84823808Y-65871561D02*
X84799999Y-65947752D01*
X84799999Y-65947752D02*
X84776189Y-65985847D01*
X84776189Y-65985847D02*
X84728570Y-66023942D01*
X84728570Y-66023942D02*
X84538094Y-66023942D01*
X85038094Y-66404895D02*
X85038094Y-65871561D01*
X85038094Y-65604895D02*
X85014285Y-65642990D01*
X85014285Y-65642990D02*
X85038094Y-65681085D01*
X85038094Y-65681085D02*
X85061904Y-65642990D01*
X85061904Y-65642990D02*
X85038094Y-65604895D01*
X85038094Y-65604895D02*
X85038094Y-65681085D01*
X85276189Y-65871561D02*
X85276189Y-66404895D01*
X85276189Y-65947752D02*
X85299999Y-65909657D01*
X85299999Y-65909657D02*
X85347618Y-65871561D01*
X85347618Y-65871561D02*
X85419046Y-65871561D01*
X85419046Y-65871561D02*
X85466665Y-65909657D01*
X85466665Y-65909657D02*
X85490475Y-65985847D01*
X85490475Y-65985847D02*
X85490475Y-66404895D01*
D10*
X86661666Y-66764819D02*
X86661666Y-67479104D01*
X86661666Y-67479104D02*
X86614047Y-67621961D01*
X86614047Y-67621961D02*
X86518809Y-67717200D01*
X86518809Y-67717200D02*
X86375952Y-67764819D01*
X86375952Y-67764819D02*
X86280714Y-67764819D01*
X87614047Y-66764819D02*
X87137857Y-66764819D01*
X87137857Y-66764819D02*
X87090238Y-67241009D01*
X87090238Y-67241009D02*
X87137857Y-67193390D01*
X87137857Y-67193390D02*
X87233095Y-67145771D01*
X87233095Y-67145771D02*
X87471190Y-67145771D01*
X87471190Y-67145771D02*
X87566428Y-67193390D01*
X87566428Y-67193390D02*
X87614047Y-67241009D01*
X87614047Y-67241009D02*
X87661666Y-67336247D01*
X87661666Y-67336247D02*
X87661666Y-67574342D01*
X87661666Y-67574342D02*
X87614047Y-67669580D01*
X87614047Y-67669580D02*
X87566428Y-67717200D01*
X87566428Y-67717200D02*
X87471190Y-67764819D01*
X87471190Y-67764819D02*
X87233095Y-67764819D01*
X87233095Y-67764819D02*
X87137857Y-67717200D01*
X87137857Y-67717200D02*
X87090238Y-67669580D01*
D11*
X89860954Y-72081800D02*
X89932382Y-72119895D01*
X89932382Y-72119895D02*
X90051430Y-72119895D01*
X90051430Y-72119895D02*
X90099049Y-72081800D01*
X90099049Y-72081800D02*
X90122858Y-72043704D01*
X90122858Y-72043704D02*
X90146668Y-71967514D01*
X90146668Y-71967514D02*
X90146668Y-71891323D01*
X90146668Y-71891323D02*
X90122858Y-71815133D01*
X90122858Y-71815133D02*
X90099049Y-71777038D01*
X90099049Y-71777038D02*
X90051430Y-71738942D01*
X90051430Y-71738942D02*
X89956192Y-71700847D01*
X89956192Y-71700847D02*
X89908573Y-71662752D01*
X89908573Y-71662752D02*
X89884763Y-71624657D01*
X89884763Y-71624657D02*
X89860954Y-71548466D01*
X89860954Y-71548466D02*
X89860954Y-71472276D01*
X89860954Y-71472276D02*
X89884763Y-71396085D01*
X89884763Y-71396085D02*
X89908573Y-71357990D01*
X89908573Y-71357990D02*
X89956192Y-71319895D01*
X89956192Y-71319895D02*
X90075239Y-71319895D01*
X90075239Y-71319895D02*
X90146668Y-71357990D01*
X90575239Y-72081800D02*
X90527620Y-72119895D01*
X90527620Y-72119895D02*
X90432382Y-72119895D01*
X90432382Y-72119895D02*
X90384763Y-72081800D01*
X90384763Y-72081800D02*
X90360953Y-72043704D01*
X90360953Y-72043704D02*
X90337144Y-71967514D01*
X90337144Y-71967514D02*
X90337144Y-71738942D01*
X90337144Y-71738942D02*
X90360953Y-71662752D01*
X90360953Y-71662752D02*
X90384763Y-71624657D01*
X90384763Y-71624657D02*
X90432382Y-71586561D01*
X90432382Y-71586561D02*
X90527620Y-71586561D01*
X90527620Y-71586561D02*
X90575239Y-71624657D01*
X90789524Y-72119895D02*
X90789524Y-71586561D01*
X90789524Y-71738942D02*
X90813334Y-71662752D01*
X90813334Y-71662752D02*
X90837143Y-71624657D01*
X90837143Y-71624657D02*
X90884762Y-71586561D01*
X90884762Y-71586561D02*
X90932381Y-71586561D01*
X91289524Y-72081800D02*
X91241905Y-72119895D01*
X91241905Y-72119895D02*
X91146667Y-72119895D01*
X91146667Y-72119895D02*
X91099048Y-72081800D01*
X91099048Y-72081800D02*
X91075239Y-72005609D01*
X91075239Y-72005609D02*
X91075239Y-71700847D01*
X91075239Y-71700847D02*
X91099048Y-71624657D01*
X91099048Y-71624657D02*
X91146667Y-71586561D01*
X91146667Y-71586561D02*
X91241905Y-71586561D01*
X91241905Y-71586561D02*
X91289524Y-71624657D01*
X91289524Y-71624657D02*
X91313334Y-71700847D01*
X91313334Y-71700847D02*
X91313334Y-71777038D01*
X91313334Y-71777038D02*
X91075239Y-71853228D01*
X91480000Y-71586561D02*
X91575238Y-72119895D01*
X91575238Y-72119895D02*
X91670476Y-71738942D01*
X91670476Y-71738942D02*
X91765714Y-72119895D01*
X91765714Y-72119895D02*
X91860952Y-71586561D01*
X91932382Y-72196085D02*
X92313334Y-72196085D01*
X92360953Y-71319895D02*
X92646667Y-71319895D01*
X92503810Y-72119895D02*
X92503810Y-71319895D01*
X93003809Y-72081800D02*
X92956190Y-72119895D01*
X92956190Y-72119895D02*
X92860952Y-72119895D01*
X92860952Y-72119895D02*
X92813333Y-72081800D01*
X92813333Y-72081800D02*
X92789524Y-72005609D01*
X92789524Y-72005609D02*
X92789524Y-71700847D01*
X92789524Y-71700847D02*
X92813333Y-71624657D01*
X92813333Y-71624657D02*
X92860952Y-71586561D01*
X92860952Y-71586561D02*
X92956190Y-71586561D01*
X92956190Y-71586561D02*
X93003809Y-71624657D01*
X93003809Y-71624657D02*
X93027619Y-71700847D01*
X93027619Y-71700847D02*
X93027619Y-71777038D01*
X93027619Y-71777038D02*
X92789524Y-71853228D01*
X93241904Y-72119895D02*
X93241904Y-71586561D01*
X93241904Y-71738942D02*
X93265714Y-71662752D01*
X93265714Y-71662752D02*
X93289523Y-71624657D01*
X93289523Y-71624657D02*
X93337142Y-71586561D01*
X93337142Y-71586561D02*
X93384761Y-71586561D01*
X93551428Y-72119895D02*
X93551428Y-71586561D01*
X93551428Y-71662752D02*
X93575238Y-71624657D01*
X93575238Y-71624657D02*
X93622857Y-71586561D01*
X93622857Y-71586561D02*
X93694285Y-71586561D01*
X93694285Y-71586561D02*
X93741904Y-71624657D01*
X93741904Y-71624657D02*
X93765714Y-71700847D01*
X93765714Y-71700847D02*
X93765714Y-72119895D01*
X93765714Y-71700847D02*
X93789523Y-71624657D01*
X93789523Y-71624657D02*
X93837142Y-71586561D01*
X93837142Y-71586561D02*
X93908571Y-71586561D01*
X93908571Y-71586561D02*
X93956190Y-71624657D01*
X93956190Y-71624657D02*
X93980000Y-71700847D01*
X93980000Y-71700847D02*
X93980000Y-72119895D01*
X94218095Y-72119895D02*
X94218095Y-71586561D01*
X94218095Y-71319895D02*
X94194286Y-71357990D01*
X94194286Y-71357990D02*
X94218095Y-71396085D01*
X94218095Y-71396085D02*
X94241905Y-71357990D01*
X94241905Y-71357990D02*
X94218095Y-71319895D01*
X94218095Y-71319895D02*
X94218095Y-71396085D01*
X94456190Y-71586561D02*
X94456190Y-72119895D01*
X94456190Y-71662752D02*
X94480000Y-71624657D01*
X94480000Y-71624657D02*
X94527619Y-71586561D01*
X94527619Y-71586561D02*
X94599047Y-71586561D01*
X94599047Y-71586561D02*
X94646666Y-71624657D01*
X94646666Y-71624657D02*
X94670476Y-71700847D01*
X94670476Y-71700847D02*
X94670476Y-72119895D01*
X95122857Y-72119895D02*
X95122857Y-71700847D01*
X95122857Y-71700847D02*
X95099047Y-71624657D01*
X95099047Y-71624657D02*
X95051428Y-71586561D01*
X95051428Y-71586561D02*
X94956190Y-71586561D01*
X94956190Y-71586561D02*
X94908571Y-71624657D01*
X95122857Y-72081800D02*
X95075238Y-72119895D01*
X95075238Y-72119895D02*
X94956190Y-72119895D01*
X94956190Y-72119895D02*
X94908571Y-72081800D01*
X94908571Y-72081800D02*
X94884762Y-72005609D01*
X94884762Y-72005609D02*
X94884762Y-71929419D01*
X94884762Y-71929419D02*
X94908571Y-71853228D01*
X94908571Y-71853228D02*
X94956190Y-71815133D01*
X94956190Y-71815133D02*
X95075238Y-71815133D01*
X95075238Y-71815133D02*
X95122857Y-71777038D01*
X95432381Y-72119895D02*
X95384762Y-72081800D01*
X95384762Y-72081800D02*
X95360952Y-72005609D01*
X95360952Y-72005609D02*
X95360952Y-71319895D01*
X95503810Y-72196085D02*
X95884762Y-72196085D01*
X96099047Y-71319895D02*
X96146666Y-71319895D01*
X96146666Y-71319895D02*
X96194285Y-71357990D01*
X96194285Y-71357990D02*
X96218095Y-71396085D01*
X96218095Y-71396085D02*
X96241904Y-71472276D01*
X96241904Y-71472276D02*
X96265714Y-71624657D01*
X96265714Y-71624657D02*
X96265714Y-71815133D01*
X96265714Y-71815133D02*
X96241904Y-71967514D01*
X96241904Y-71967514D02*
X96218095Y-72043704D01*
X96218095Y-72043704D02*
X96194285Y-72081800D01*
X96194285Y-72081800D02*
X96146666Y-72119895D01*
X96146666Y-72119895D02*
X96099047Y-72119895D01*
X96099047Y-72119895D02*
X96051428Y-72081800D01*
X96051428Y-72081800D02*
X96027619Y-72043704D01*
X96027619Y-72043704D02*
X96003809Y-71967514D01*
X96003809Y-71967514D02*
X95980000Y-71815133D01*
X95980000Y-71815133D02*
X95980000Y-71624657D01*
X95980000Y-71624657D02*
X96003809Y-71472276D01*
X96003809Y-71472276D02*
X96027619Y-71396085D01*
X96027619Y-71396085D02*
X96051428Y-71357990D01*
X96051428Y-71357990D02*
X96099047Y-71319895D01*
X96741904Y-72119895D02*
X96456190Y-72119895D01*
X96599047Y-72119895D02*
X96599047Y-71319895D01*
X96599047Y-71319895D02*
X96551428Y-71434180D01*
X96551428Y-71434180D02*
X96503809Y-71510371D01*
X96503809Y-71510371D02*
X96456190Y-71548466D01*
X96908570Y-72119895D02*
X97170475Y-71586561D01*
X96908570Y-71586561D02*
X97170475Y-72119895D01*
X97456189Y-71319895D02*
X97503808Y-71319895D01*
X97503808Y-71319895D02*
X97551427Y-71357990D01*
X97551427Y-71357990D02*
X97575237Y-71396085D01*
X97575237Y-71396085D02*
X97599046Y-71472276D01*
X97599046Y-71472276D02*
X97622856Y-71624657D01*
X97622856Y-71624657D02*
X97622856Y-71815133D01*
X97622856Y-71815133D02*
X97599046Y-71967514D01*
X97599046Y-71967514D02*
X97575237Y-72043704D01*
X97575237Y-72043704D02*
X97551427Y-72081800D01*
X97551427Y-72081800D02*
X97503808Y-72119895D01*
X97503808Y-72119895D02*
X97456189Y-72119895D01*
X97456189Y-72119895D02*
X97408570Y-72081800D01*
X97408570Y-72081800D02*
X97384761Y-72043704D01*
X97384761Y-72043704D02*
X97360951Y-71967514D01*
X97360951Y-71967514D02*
X97337142Y-71815133D01*
X97337142Y-71815133D02*
X97337142Y-71624657D01*
X97337142Y-71624657D02*
X97360951Y-71472276D01*
X97360951Y-71472276D02*
X97384761Y-71396085D01*
X97384761Y-71396085D02*
X97408570Y-71357990D01*
X97408570Y-71357990D02*
X97456189Y-71319895D01*
X97813332Y-71396085D02*
X97837141Y-71357990D01*
X97837141Y-71357990D02*
X97884760Y-71319895D01*
X97884760Y-71319895D02*
X98003808Y-71319895D01*
X98003808Y-71319895D02*
X98051427Y-71357990D01*
X98051427Y-71357990D02*
X98075236Y-71396085D01*
X98075236Y-71396085D02*
X98099046Y-71472276D01*
X98099046Y-71472276D02*
X98099046Y-71548466D01*
X98099046Y-71548466D02*
X98075236Y-71662752D01*
X98075236Y-71662752D02*
X97789522Y-72119895D01*
X97789522Y-72119895D02*
X98099046Y-72119895D01*
D10*
X86661666Y-109309819D02*
X86661666Y-110024104D01*
X86661666Y-110024104D02*
X86614047Y-110166961D01*
X86614047Y-110166961D02*
X86518809Y-110262200D01*
X86518809Y-110262200D02*
X86375952Y-110309819D01*
X86375952Y-110309819D02*
X86280714Y-110309819D01*
X87042619Y-109309819D02*
X87709285Y-109309819D01*
X87709285Y-109309819D02*
X87280714Y-110309819D01*
D11*
X89860954Y-107006800D02*
X89932382Y-107044895D01*
X89932382Y-107044895D02*
X90051430Y-107044895D01*
X90051430Y-107044895D02*
X90099049Y-107006800D01*
X90099049Y-107006800D02*
X90122858Y-106968704D01*
X90122858Y-106968704D02*
X90146668Y-106892514D01*
X90146668Y-106892514D02*
X90146668Y-106816323D01*
X90146668Y-106816323D02*
X90122858Y-106740133D01*
X90122858Y-106740133D02*
X90099049Y-106702038D01*
X90099049Y-106702038D02*
X90051430Y-106663942D01*
X90051430Y-106663942D02*
X89956192Y-106625847D01*
X89956192Y-106625847D02*
X89908573Y-106587752D01*
X89908573Y-106587752D02*
X89884763Y-106549657D01*
X89884763Y-106549657D02*
X89860954Y-106473466D01*
X89860954Y-106473466D02*
X89860954Y-106397276D01*
X89860954Y-106397276D02*
X89884763Y-106321085D01*
X89884763Y-106321085D02*
X89908573Y-106282990D01*
X89908573Y-106282990D02*
X89956192Y-106244895D01*
X89956192Y-106244895D02*
X90075239Y-106244895D01*
X90075239Y-106244895D02*
X90146668Y-106282990D01*
X90575239Y-107006800D02*
X90527620Y-107044895D01*
X90527620Y-107044895D02*
X90432382Y-107044895D01*
X90432382Y-107044895D02*
X90384763Y-107006800D01*
X90384763Y-107006800D02*
X90360953Y-106968704D01*
X90360953Y-106968704D02*
X90337144Y-106892514D01*
X90337144Y-106892514D02*
X90337144Y-106663942D01*
X90337144Y-106663942D02*
X90360953Y-106587752D01*
X90360953Y-106587752D02*
X90384763Y-106549657D01*
X90384763Y-106549657D02*
X90432382Y-106511561D01*
X90432382Y-106511561D02*
X90527620Y-106511561D01*
X90527620Y-106511561D02*
X90575239Y-106549657D01*
X90789524Y-107044895D02*
X90789524Y-106511561D01*
X90789524Y-106663942D02*
X90813334Y-106587752D01*
X90813334Y-106587752D02*
X90837143Y-106549657D01*
X90837143Y-106549657D02*
X90884762Y-106511561D01*
X90884762Y-106511561D02*
X90932381Y-106511561D01*
X91289524Y-107006800D02*
X91241905Y-107044895D01*
X91241905Y-107044895D02*
X91146667Y-107044895D01*
X91146667Y-107044895D02*
X91099048Y-107006800D01*
X91099048Y-107006800D02*
X91075239Y-106930609D01*
X91075239Y-106930609D02*
X91075239Y-106625847D01*
X91075239Y-106625847D02*
X91099048Y-106549657D01*
X91099048Y-106549657D02*
X91146667Y-106511561D01*
X91146667Y-106511561D02*
X91241905Y-106511561D01*
X91241905Y-106511561D02*
X91289524Y-106549657D01*
X91289524Y-106549657D02*
X91313334Y-106625847D01*
X91313334Y-106625847D02*
X91313334Y-106702038D01*
X91313334Y-106702038D02*
X91075239Y-106778228D01*
X91480000Y-106511561D02*
X91575238Y-107044895D01*
X91575238Y-107044895D02*
X91670476Y-106663942D01*
X91670476Y-106663942D02*
X91765714Y-107044895D01*
X91765714Y-107044895D02*
X91860952Y-106511561D01*
X91932382Y-107121085D02*
X92313334Y-107121085D01*
X92360953Y-106244895D02*
X92646667Y-106244895D01*
X92503810Y-107044895D02*
X92503810Y-106244895D01*
X93003809Y-107006800D02*
X92956190Y-107044895D01*
X92956190Y-107044895D02*
X92860952Y-107044895D01*
X92860952Y-107044895D02*
X92813333Y-107006800D01*
X92813333Y-107006800D02*
X92789524Y-106930609D01*
X92789524Y-106930609D02*
X92789524Y-106625847D01*
X92789524Y-106625847D02*
X92813333Y-106549657D01*
X92813333Y-106549657D02*
X92860952Y-106511561D01*
X92860952Y-106511561D02*
X92956190Y-106511561D01*
X92956190Y-106511561D02*
X93003809Y-106549657D01*
X93003809Y-106549657D02*
X93027619Y-106625847D01*
X93027619Y-106625847D02*
X93027619Y-106702038D01*
X93027619Y-106702038D02*
X92789524Y-106778228D01*
X93241904Y-107044895D02*
X93241904Y-106511561D01*
X93241904Y-106663942D02*
X93265714Y-106587752D01*
X93265714Y-106587752D02*
X93289523Y-106549657D01*
X93289523Y-106549657D02*
X93337142Y-106511561D01*
X93337142Y-106511561D02*
X93384761Y-106511561D01*
X93551428Y-107044895D02*
X93551428Y-106511561D01*
X93551428Y-106587752D02*
X93575238Y-106549657D01*
X93575238Y-106549657D02*
X93622857Y-106511561D01*
X93622857Y-106511561D02*
X93694285Y-106511561D01*
X93694285Y-106511561D02*
X93741904Y-106549657D01*
X93741904Y-106549657D02*
X93765714Y-106625847D01*
X93765714Y-106625847D02*
X93765714Y-107044895D01*
X93765714Y-106625847D02*
X93789523Y-106549657D01*
X93789523Y-106549657D02*
X93837142Y-106511561D01*
X93837142Y-106511561D02*
X93908571Y-106511561D01*
X93908571Y-106511561D02*
X93956190Y-106549657D01*
X93956190Y-106549657D02*
X93980000Y-106625847D01*
X93980000Y-106625847D02*
X93980000Y-107044895D01*
X94218095Y-107044895D02*
X94218095Y-106511561D01*
X94218095Y-106244895D02*
X94194286Y-106282990D01*
X94194286Y-106282990D02*
X94218095Y-106321085D01*
X94218095Y-106321085D02*
X94241905Y-106282990D01*
X94241905Y-106282990D02*
X94218095Y-106244895D01*
X94218095Y-106244895D02*
X94218095Y-106321085D01*
X94456190Y-106511561D02*
X94456190Y-107044895D01*
X94456190Y-106587752D02*
X94480000Y-106549657D01*
X94480000Y-106549657D02*
X94527619Y-106511561D01*
X94527619Y-106511561D02*
X94599047Y-106511561D01*
X94599047Y-106511561D02*
X94646666Y-106549657D01*
X94646666Y-106549657D02*
X94670476Y-106625847D01*
X94670476Y-106625847D02*
X94670476Y-107044895D01*
X95122857Y-107044895D02*
X95122857Y-106625847D01*
X95122857Y-106625847D02*
X95099047Y-106549657D01*
X95099047Y-106549657D02*
X95051428Y-106511561D01*
X95051428Y-106511561D02*
X94956190Y-106511561D01*
X94956190Y-106511561D02*
X94908571Y-106549657D01*
X95122857Y-107006800D02*
X95075238Y-107044895D01*
X95075238Y-107044895D02*
X94956190Y-107044895D01*
X94956190Y-107044895D02*
X94908571Y-107006800D01*
X94908571Y-107006800D02*
X94884762Y-106930609D01*
X94884762Y-106930609D02*
X94884762Y-106854419D01*
X94884762Y-106854419D02*
X94908571Y-106778228D01*
X94908571Y-106778228D02*
X94956190Y-106740133D01*
X94956190Y-106740133D02*
X95075238Y-106740133D01*
X95075238Y-106740133D02*
X95122857Y-106702038D01*
X95432381Y-107044895D02*
X95384762Y-107006800D01*
X95384762Y-107006800D02*
X95360952Y-106930609D01*
X95360952Y-106930609D02*
X95360952Y-106244895D01*
X95503810Y-107121085D02*
X95884762Y-107121085D01*
X96099047Y-106244895D02*
X96146666Y-106244895D01*
X96146666Y-106244895D02*
X96194285Y-106282990D01*
X96194285Y-106282990D02*
X96218095Y-106321085D01*
X96218095Y-106321085D02*
X96241904Y-106397276D01*
X96241904Y-106397276D02*
X96265714Y-106549657D01*
X96265714Y-106549657D02*
X96265714Y-106740133D01*
X96265714Y-106740133D02*
X96241904Y-106892514D01*
X96241904Y-106892514D02*
X96218095Y-106968704D01*
X96218095Y-106968704D02*
X96194285Y-107006800D01*
X96194285Y-107006800D02*
X96146666Y-107044895D01*
X96146666Y-107044895D02*
X96099047Y-107044895D01*
X96099047Y-107044895D02*
X96051428Y-107006800D01*
X96051428Y-107006800D02*
X96027619Y-106968704D01*
X96027619Y-106968704D02*
X96003809Y-106892514D01*
X96003809Y-106892514D02*
X95980000Y-106740133D01*
X95980000Y-106740133D02*
X95980000Y-106549657D01*
X95980000Y-106549657D02*
X96003809Y-106397276D01*
X96003809Y-106397276D02*
X96027619Y-106321085D01*
X96027619Y-106321085D02*
X96051428Y-106282990D01*
X96051428Y-106282990D02*
X96099047Y-106244895D01*
X96741904Y-107044895D02*
X96456190Y-107044895D01*
X96599047Y-107044895D02*
X96599047Y-106244895D01*
X96599047Y-106244895D02*
X96551428Y-106359180D01*
X96551428Y-106359180D02*
X96503809Y-106435371D01*
X96503809Y-106435371D02*
X96456190Y-106473466D01*
X96908570Y-107044895D02*
X97170475Y-106511561D01*
X96908570Y-106511561D02*
X97170475Y-107044895D01*
X97456189Y-106244895D02*
X97503808Y-106244895D01*
X97503808Y-106244895D02*
X97551427Y-106282990D01*
X97551427Y-106282990D02*
X97575237Y-106321085D01*
X97575237Y-106321085D02*
X97599046Y-106397276D01*
X97599046Y-106397276D02*
X97622856Y-106549657D01*
X97622856Y-106549657D02*
X97622856Y-106740133D01*
X97622856Y-106740133D02*
X97599046Y-106892514D01*
X97599046Y-106892514D02*
X97575237Y-106968704D01*
X97575237Y-106968704D02*
X97551427Y-107006800D01*
X97551427Y-107006800D02*
X97503808Y-107044895D01*
X97503808Y-107044895D02*
X97456189Y-107044895D01*
X97456189Y-107044895D02*
X97408570Y-107006800D01*
X97408570Y-107006800D02*
X97384761Y-106968704D01*
X97384761Y-106968704D02*
X97360951Y-106892514D01*
X97360951Y-106892514D02*
X97337142Y-106740133D01*
X97337142Y-106740133D02*
X97337142Y-106549657D01*
X97337142Y-106549657D02*
X97360951Y-106397276D01*
X97360951Y-106397276D02*
X97384761Y-106321085D01*
X97384761Y-106321085D02*
X97408570Y-106282990D01*
X97408570Y-106282990D02*
X97456189Y-106244895D01*
X97813332Y-106321085D02*
X97837141Y-106282990D01*
X97837141Y-106282990D02*
X97884760Y-106244895D01*
X97884760Y-106244895D02*
X98003808Y-106244895D01*
X98003808Y-106244895D02*
X98051427Y-106282990D01*
X98051427Y-106282990D02*
X98075236Y-106321085D01*
X98075236Y-106321085D02*
X98099046Y-106397276D01*
X98099046Y-106397276D02*
X98099046Y-106473466D01*
X98099046Y-106473466D02*
X98075236Y-106587752D01*
X98075236Y-106587752D02*
X97789522Y-107044895D01*
X97789522Y-107044895D02*
X98099046Y-107044895D01*
D10*
X91313095Y-78992200D02*
X91455952Y-79039819D01*
X91455952Y-79039819D02*
X91694047Y-79039819D01*
X91694047Y-79039819D02*
X91789285Y-78992200D01*
X91789285Y-78992200D02*
X91836904Y-78944580D01*
X91836904Y-78944580D02*
X91884523Y-78849342D01*
X91884523Y-78849342D02*
X91884523Y-78754104D01*
X91884523Y-78754104D02*
X91836904Y-78658866D01*
X91836904Y-78658866D02*
X91789285Y-78611247D01*
X91789285Y-78611247D02*
X91694047Y-78563628D01*
X91694047Y-78563628D02*
X91503571Y-78516009D01*
X91503571Y-78516009D02*
X91408333Y-78468390D01*
X91408333Y-78468390D02*
X91360714Y-78420771D01*
X91360714Y-78420771D02*
X91313095Y-78325533D01*
X91313095Y-78325533D02*
X91313095Y-78230295D01*
X91313095Y-78230295D02*
X91360714Y-78135057D01*
X91360714Y-78135057D02*
X91408333Y-78087438D01*
X91408333Y-78087438D02*
X91503571Y-78039819D01*
X91503571Y-78039819D02*
X91741666Y-78039819D01*
X91741666Y-78039819D02*
X91884523Y-78087438D01*
X92836904Y-79039819D02*
X92265476Y-79039819D01*
X92551190Y-79039819D02*
X92551190Y-78039819D01*
X92551190Y-78039819D02*
X92455952Y-78182676D01*
X92455952Y-78182676D02*
X92360714Y-78277914D01*
X92360714Y-78277914D02*
X92265476Y-78325533D01*
D11*
X91400477Y-72970847D02*
X91567144Y-72970847D01*
X91638572Y-73389895D02*
X91400477Y-73389895D01*
X91400477Y-73389895D02*
X91400477Y-72589895D01*
X91400477Y-72589895D02*
X91638572Y-72589895D01*
X92114763Y-72627990D02*
X92067144Y-72589895D01*
X92067144Y-72589895D02*
X91995715Y-72589895D01*
X91995715Y-72589895D02*
X91924287Y-72627990D01*
X91924287Y-72627990D02*
X91876668Y-72704180D01*
X91876668Y-72704180D02*
X91852858Y-72780371D01*
X91852858Y-72780371D02*
X91829049Y-72932752D01*
X91829049Y-72932752D02*
X91829049Y-73047038D01*
X91829049Y-73047038D02*
X91852858Y-73199419D01*
X91852858Y-73199419D02*
X91876668Y-73275609D01*
X91876668Y-73275609D02*
X91924287Y-73351800D01*
X91924287Y-73351800D02*
X91995715Y-73389895D01*
X91995715Y-73389895D02*
X92043334Y-73389895D01*
X92043334Y-73389895D02*
X92114763Y-73351800D01*
X92114763Y-73351800D02*
X92138572Y-73313704D01*
X92138572Y-73313704D02*
X92138572Y-73047038D01*
X92138572Y-73047038D02*
X92043334Y-73047038D01*
X92614763Y-73389895D02*
X92329049Y-73389895D01*
X92471906Y-73389895D02*
X92471906Y-72589895D01*
X92471906Y-72589895D02*
X92424287Y-72704180D01*
X92424287Y-72704180D02*
X92376668Y-72780371D01*
X92376668Y-72780371D02*
X92329049Y-72818466D01*
X92805239Y-72666085D02*
X92829048Y-72627990D01*
X92829048Y-72627990D02*
X92876667Y-72589895D01*
X92876667Y-72589895D02*
X92995715Y-72589895D01*
X92995715Y-72589895D02*
X93043334Y-72627990D01*
X93043334Y-72627990D02*
X93067143Y-72666085D01*
X93067143Y-72666085D02*
X93090953Y-72742276D01*
X93090953Y-72742276D02*
X93090953Y-72818466D01*
X93090953Y-72818466D02*
X93067143Y-72932752D01*
X93067143Y-72932752D02*
X92781429Y-73389895D01*
X92781429Y-73389895D02*
X93090953Y-73389895D01*
X93567143Y-73389895D02*
X93281429Y-73389895D01*
X93424286Y-73389895D02*
X93424286Y-72589895D01*
X93424286Y-72589895D02*
X93376667Y-72704180D01*
X93376667Y-72704180D02*
X93329048Y-72780371D01*
X93329048Y-72780371D02*
X93281429Y-72818466D01*
X93852857Y-72932752D02*
X93805238Y-72894657D01*
X93805238Y-72894657D02*
X93781428Y-72856561D01*
X93781428Y-72856561D02*
X93757619Y-72780371D01*
X93757619Y-72780371D02*
X93757619Y-72742276D01*
X93757619Y-72742276D02*
X93781428Y-72666085D01*
X93781428Y-72666085D02*
X93805238Y-72627990D01*
X93805238Y-72627990D02*
X93852857Y-72589895D01*
X93852857Y-72589895D02*
X93948095Y-72589895D01*
X93948095Y-72589895D02*
X93995714Y-72627990D01*
X93995714Y-72627990D02*
X94019523Y-72666085D01*
X94019523Y-72666085D02*
X94043333Y-72742276D01*
X94043333Y-72742276D02*
X94043333Y-72780371D01*
X94043333Y-72780371D02*
X94019523Y-72856561D01*
X94019523Y-72856561D02*
X93995714Y-72894657D01*
X93995714Y-72894657D02*
X93948095Y-72932752D01*
X93948095Y-72932752D02*
X93852857Y-72932752D01*
X93852857Y-72932752D02*
X93805238Y-72970847D01*
X93805238Y-72970847D02*
X93781428Y-73008942D01*
X93781428Y-73008942D02*
X93757619Y-73085133D01*
X93757619Y-73085133D02*
X93757619Y-73237514D01*
X93757619Y-73237514D02*
X93781428Y-73313704D01*
X93781428Y-73313704D02*
X93805238Y-73351800D01*
X93805238Y-73351800D02*
X93852857Y-73389895D01*
X93852857Y-73389895D02*
X93948095Y-73389895D01*
X93948095Y-73389895D02*
X93995714Y-73351800D01*
X93995714Y-73351800D02*
X94019523Y-73313704D01*
X94019523Y-73313704D02*
X94043333Y-73237514D01*
X94043333Y-73237514D02*
X94043333Y-73085133D01*
X94043333Y-73085133D02*
X94019523Y-73008942D01*
X94019523Y-73008942D02*
X93995714Y-72970847D01*
X93995714Y-72970847D02*
X93948095Y-72932752D01*
D10*
X84963095Y-74384819D02*
X84963095Y-75194342D01*
X84963095Y-75194342D02*
X85010714Y-75289580D01*
X85010714Y-75289580D02*
X85058333Y-75337200D01*
X85058333Y-75337200D02*
X85153571Y-75384819D01*
X85153571Y-75384819D02*
X85344047Y-75384819D01*
X85344047Y-75384819D02*
X85439285Y-75337200D01*
X85439285Y-75337200D02*
X85486904Y-75289580D01*
X85486904Y-75289580D02*
X85534523Y-75194342D01*
X85534523Y-75194342D02*
X85534523Y-74384819D01*
X86534523Y-75384819D02*
X85963095Y-75384819D01*
X86248809Y-75384819D02*
X86248809Y-74384819D01*
X86248809Y-74384819D02*
X86153571Y-74527676D01*
X86153571Y-74527676D02*
X86058333Y-74622914D01*
X86058333Y-74622914D02*
X85963095Y-74670533D01*
D11*
X86459525Y-81644895D02*
X86221430Y-81644895D01*
X86221430Y-81644895D02*
X86221430Y-80844895D01*
X86626192Y-81644895D02*
X86626192Y-80844895D01*
X86626192Y-80844895D02*
X86792859Y-81416323D01*
X86792859Y-81416323D02*
X86959525Y-80844895D01*
X86959525Y-80844895D02*
X86959525Y-81644895D01*
X87150002Y-80844895D02*
X87483335Y-80844895D01*
X87483335Y-80844895D02*
X87269050Y-81644895D01*
X87745240Y-81187752D02*
X87697621Y-81149657D01*
X87697621Y-81149657D02*
X87673811Y-81111561D01*
X87673811Y-81111561D02*
X87650002Y-81035371D01*
X87650002Y-81035371D02*
X87650002Y-80997276D01*
X87650002Y-80997276D02*
X87673811Y-80921085D01*
X87673811Y-80921085D02*
X87697621Y-80882990D01*
X87697621Y-80882990D02*
X87745240Y-80844895D01*
X87745240Y-80844895D02*
X87840478Y-80844895D01*
X87840478Y-80844895D02*
X87888097Y-80882990D01*
X87888097Y-80882990D02*
X87911906Y-80921085D01*
X87911906Y-80921085D02*
X87935716Y-80997276D01*
X87935716Y-80997276D02*
X87935716Y-81035371D01*
X87935716Y-81035371D02*
X87911906Y-81111561D01*
X87911906Y-81111561D02*
X87888097Y-81149657D01*
X87888097Y-81149657D02*
X87840478Y-81187752D01*
X87840478Y-81187752D02*
X87745240Y-81187752D01*
X87745240Y-81187752D02*
X87697621Y-81225847D01*
X87697621Y-81225847D02*
X87673811Y-81263942D01*
X87673811Y-81263942D02*
X87650002Y-81340133D01*
X87650002Y-81340133D02*
X87650002Y-81492514D01*
X87650002Y-81492514D02*
X87673811Y-81568704D01*
X87673811Y-81568704D02*
X87697621Y-81606800D01*
X87697621Y-81606800D02*
X87745240Y-81644895D01*
X87745240Y-81644895D02*
X87840478Y-81644895D01*
X87840478Y-81644895D02*
X87888097Y-81606800D01*
X87888097Y-81606800D02*
X87911906Y-81568704D01*
X87911906Y-81568704D02*
X87935716Y-81492514D01*
X87935716Y-81492514D02*
X87935716Y-81340133D01*
X87935716Y-81340133D02*
X87911906Y-81263942D01*
X87911906Y-81263942D02*
X87888097Y-81225847D01*
X87888097Y-81225847D02*
X87840478Y-81187752D01*
X88245239Y-80844895D02*
X88292858Y-80844895D01*
X88292858Y-80844895D02*
X88340477Y-80882990D01*
X88340477Y-80882990D02*
X88364287Y-80921085D01*
X88364287Y-80921085D02*
X88388096Y-80997276D01*
X88388096Y-80997276D02*
X88411906Y-81149657D01*
X88411906Y-81149657D02*
X88411906Y-81340133D01*
X88411906Y-81340133D02*
X88388096Y-81492514D01*
X88388096Y-81492514D02*
X88364287Y-81568704D01*
X88364287Y-81568704D02*
X88340477Y-81606800D01*
X88340477Y-81606800D02*
X88292858Y-81644895D01*
X88292858Y-81644895D02*
X88245239Y-81644895D01*
X88245239Y-81644895D02*
X88197620Y-81606800D01*
X88197620Y-81606800D02*
X88173811Y-81568704D01*
X88173811Y-81568704D02*
X88150001Y-81492514D01*
X88150001Y-81492514D02*
X88126192Y-81340133D01*
X88126192Y-81340133D02*
X88126192Y-81149657D01*
X88126192Y-81149657D02*
X88150001Y-80997276D01*
X88150001Y-80997276D02*
X88173811Y-80921085D01*
X88173811Y-80921085D02*
X88197620Y-80882990D01*
X88197620Y-80882990D02*
X88245239Y-80844895D01*
X88864286Y-80844895D02*
X88626191Y-80844895D01*
X88626191Y-80844895D02*
X88602382Y-81225847D01*
X88602382Y-81225847D02*
X88626191Y-81187752D01*
X88626191Y-81187752D02*
X88673810Y-81149657D01*
X88673810Y-81149657D02*
X88792858Y-81149657D01*
X88792858Y-81149657D02*
X88840477Y-81187752D01*
X88840477Y-81187752D02*
X88864286Y-81225847D01*
X88864286Y-81225847D02*
X88888096Y-81302038D01*
X88888096Y-81302038D02*
X88888096Y-81492514D01*
X88888096Y-81492514D02*
X88864286Y-81568704D01*
X88864286Y-81568704D02*
X88840477Y-81606800D01*
X88840477Y-81606800D02*
X88792858Y-81644895D01*
X88792858Y-81644895D02*
X88673810Y-81644895D01*
X88673810Y-81644895D02*
X88626191Y-81606800D01*
X88626191Y-81606800D02*
X88602382Y-81568704D01*
X88983334Y-81721085D02*
X89364286Y-81721085D01*
X89411905Y-80844895D02*
X89697619Y-80844895D01*
X89554762Y-81644895D02*
X89554762Y-80844895D01*
X89959523Y-80844895D02*
X90054761Y-80844895D01*
X90054761Y-80844895D02*
X90102380Y-80882990D01*
X90102380Y-80882990D02*
X90149999Y-80959180D01*
X90149999Y-80959180D02*
X90173809Y-81111561D01*
X90173809Y-81111561D02*
X90173809Y-81378228D01*
X90173809Y-81378228D02*
X90149999Y-81530609D01*
X90149999Y-81530609D02*
X90102380Y-81606800D01*
X90102380Y-81606800D02*
X90054761Y-81644895D01*
X90054761Y-81644895D02*
X89959523Y-81644895D01*
X89959523Y-81644895D02*
X89911904Y-81606800D01*
X89911904Y-81606800D02*
X89864285Y-81530609D01*
X89864285Y-81530609D02*
X89840476Y-81378228D01*
X89840476Y-81378228D02*
X89840476Y-81111561D01*
X89840476Y-81111561D02*
X89864285Y-80959180D01*
X89864285Y-80959180D02*
X89911904Y-80882990D01*
X89911904Y-80882990D02*
X89959523Y-80844895D01*
X90364286Y-80921085D02*
X90388095Y-80882990D01*
X90388095Y-80882990D02*
X90435714Y-80844895D01*
X90435714Y-80844895D02*
X90554762Y-80844895D01*
X90554762Y-80844895D02*
X90602381Y-80882990D01*
X90602381Y-80882990D02*
X90626190Y-80921085D01*
X90626190Y-80921085D02*
X90650000Y-80997276D01*
X90650000Y-80997276D02*
X90650000Y-81073466D01*
X90650000Y-81073466D02*
X90626190Y-81187752D01*
X90626190Y-81187752D02*
X90340476Y-81644895D01*
X90340476Y-81644895D02*
X90650000Y-81644895D01*
X90840476Y-80921085D02*
X90864285Y-80882990D01*
X90864285Y-80882990D02*
X90911904Y-80844895D01*
X90911904Y-80844895D02*
X91030952Y-80844895D01*
X91030952Y-80844895D02*
X91078571Y-80882990D01*
X91078571Y-80882990D02*
X91102380Y-80921085D01*
X91102380Y-80921085D02*
X91126190Y-80997276D01*
X91126190Y-80997276D02*
X91126190Y-81073466D01*
X91126190Y-81073466D02*
X91102380Y-81187752D01*
X91102380Y-81187752D02*
X90816666Y-81644895D01*
X90816666Y-81644895D02*
X91126190Y-81644895D01*
X91435713Y-80844895D02*
X91483332Y-80844895D01*
X91483332Y-80844895D02*
X91530951Y-80882990D01*
X91530951Y-80882990D02*
X91554761Y-80921085D01*
X91554761Y-80921085D02*
X91578570Y-80997276D01*
X91578570Y-80997276D02*
X91602380Y-81149657D01*
X91602380Y-81149657D02*
X91602380Y-81340133D01*
X91602380Y-81340133D02*
X91578570Y-81492514D01*
X91578570Y-81492514D02*
X91554761Y-81568704D01*
X91554761Y-81568704D02*
X91530951Y-81606800D01*
X91530951Y-81606800D02*
X91483332Y-81644895D01*
X91483332Y-81644895D02*
X91435713Y-81644895D01*
X91435713Y-81644895D02*
X91388094Y-81606800D01*
X91388094Y-81606800D02*
X91364285Y-81568704D01*
X91364285Y-81568704D02*
X91340475Y-81492514D01*
X91340475Y-81492514D02*
X91316666Y-81340133D01*
X91316666Y-81340133D02*
X91316666Y-81149657D01*
X91316666Y-81149657D02*
X91340475Y-80997276D01*
X91340475Y-80997276D02*
X91364285Y-80921085D01*
X91364285Y-80921085D02*
X91388094Y-80882990D01*
X91388094Y-80882990D02*
X91435713Y-80844895D01*
D10*
X98726666Y-71844819D02*
X98726666Y-72559104D01*
X98726666Y-72559104D02*
X98679047Y-72701961D01*
X98679047Y-72701961D02*
X98583809Y-72797200D01*
X98583809Y-72797200D02*
X98440952Y-72844819D01*
X98440952Y-72844819D02*
X98345714Y-72844819D01*
X99631428Y-72178152D02*
X99631428Y-72844819D01*
X99393333Y-71797200D02*
X99155238Y-72511485D01*
X99155238Y-72511485D02*
X99774285Y-72511485D01*
D11*
X100618704Y-68694760D02*
X100656800Y-68718569D01*
X100656800Y-68718569D02*
X100694895Y-68789998D01*
X100694895Y-68789998D02*
X100694895Y-68837617D01*
X100694895Y-68837617D02*
X100656800Y-68909045D01*
X100656800Y-68909045D02*
X100580609Y-68956664D01*
X100580609Y-68956664D02*
X100504419Y-68980474D01*
X100504419Y-68980474D02*
X100352038Y-69004283D01*
X100352038Y-69004283D02*
X100237752Y-69004283D01*
X100237752Y-69004283D02*
X100085371Y-68980474D01*
X100085371Y-68980474D02*
X100009180Y-68956664D01*
X100009180Y-68956664D02*
X99932990Y-68909045D01*
X99932990Y-68909045D02*
X99894895Y-68837617D01*
X99894895Y-68837617D02*
X99894895Y-68789998D01*
X99894895Y-68789998D02*
X99932990Y-68718569D01*
X99932990Y-68718569D02*
X99971085Y-68694760D01*
X100694895Y-68409045D02*
X100656800Y-68456664D01*
X100656800Y-68456664D02*
X100618704Y-68480474D01*
X100618704Y-68480474D02*
X100542514Y-68504283D01*
X100542514Y-68504283D02*
X100313942Y-68504283D01*
X100313942Y-68504283D02*
X100237752Y-68480474D01*
X100237752Y-68480474D02*
X100199657Y-68456664D01*
X100199657Y-68456664D02*
X100161561Y-68409045D01*
X100161561Y-68409045D02*
X100161561Y-68337617D01*
X100161561Y-68337617D02*
X100199657Y-68289998D01*
X100199657Y-68289998D02*
X100237752Y-68266188D01*
X100237752Y-68266188D02*
X100313942Y-68242379D01*
X100313942Y-68242379D02*
X100542514Y-68242379D01*
X100542514Y-68242379D02*
X100618704Y-68266188D01*
X100618704Y-68266188D02*
X100656800Y-68289998D01*
X100656800Y-68289998D02*
X100694895Y-68337617D01*
X100694895Y-68337617D02*
X100694895Y-68409045D01*
X100161561Y-68028093D02*
X100694895Y-68028093D01*
X100237752Y-68028093D02*
X100199657Y-68004283D01*
X100199657Y-68004283D02*
X100161561Y-67956664D01*
X100161561Y-67956664D02*
X100161561Y-67885236D01*
X100161561Y-67885236D02*
X100199657Y-67837617D01*
X100199657Y-67837617D02*
X100275847Y-67813807D01*
X100275847Y-67813807D02*
X100694895Y-67813807D01*
X100161561Y-67575712D02*
X100694895Y-67575712D01*
X100237752Y-67575712D02*
X100199657Y-67551902D01*
X100199657Y-67551902D02*
X100161561Y-67504283D01*
X100161561Y-67504283D02*
X100161561Y-67432855D01*
X100161561Y-67432855D02*
X100199657Y-67385236D01*
X100199657Y-67385236D02*
X100275847Y-67361426D01*
X100275847Y-67361426D02*
X100694895Y-67361426D01*
X100771085Y-67242379D02*
X100771085Y-66861426D01*
X99894895Y-66647141D02*
X99894895Y-66599522D01*
X99894895Y-66599522D02*
X99932990Y-66551903D01*
X99932990Y-66551903D02*
X99971085Y-66528093D01*
X99971085Y-66528093D02*
X100047276Y-66504284D01*
X100047276Y-66504284D02*
X100199657Y-66480474D01*
X100199657Y-66480474D02*
X100390133Y-66480474D01*
X100390133Y-66480474D02*
X100542514Y-66504284D01*
X100542514Y-66504284D02*
X100618704Y-66528093D01*
X100618704Y-66528093D02*
X100656800Y-66551903D01*
X100656800Y-66551903D02*
X100694895Y-66599522D01*
X100694895Y-66599522D02*
X100694895Y-66647141D01*
X100694895Y-66647141D02*
X100656800Y-66694760D01*
X100656800Y-66694760D02*
X100618704Y-66718569D01*
X100618704Y-66718569D02*
X100542514Y-66742379D01*
X100542514Y-66742379D02*
X100390133Y-66766188D01*
X100390133Y-66766188D02*
X100199657Y-66766188D01*
X100199657Y-66766188D02*
X100047276Y-66742379D01*
X100047276Y-66742379D02*
X99971085Y-66718569D01*
X99971085Y-66718569D02*
X99932990Y-66694760D01*
X99932990Y-66694760D02*
X99894895Y-66647141D01*
X100694895Y-66004284D02*
X100694895Y-66289998D01*
X100694895Y-66147141D02*
X99894895Y-66147141D01*
X99894895Y-66147141D02*
X100009180Y-66194760D01*
X100009180Y-66194760D02*
X100085371Y-66242379D01*
X100085371Y-66242379D02*
X100123466Y-66289998D01*
X100694895Y-65837618D02*
X100161561Y-65575713D01*
X100161561Y-65837618D02*
X100694895Y-65575713D01*
X99894895Y-65289999D02*
X99894895Y-65242380D01*
X99894895Y-65242380D02*
X99932990Y-65194761D01*
X99932990Y-65194761D02*
X99971085Y-65170951D01*
X99971085Y-65170951D02*
X100047276Y-65147142D01*
X100047276Y-65147142D02*
X100199657Y-65123332D01*
X100199657Y-65123332D02*
X100390133Y-65123332D01*
X100390133Y-65123332D02*
X100542514Y-65147142D01*
X100542514Y-65147142D02*
X100618704Y-65170951D01*
X100618704Y-65170951D02*
X100656800Y-65194761D01*
X100656800Y-65194761D02*
X100694895Y-65242380D01*
X100694895Y-65242380D02*
X100694895Y-65289999D01*
X100694895Y-65289999D02*
X100656800Y-65337618D01*
X100656800Y-65337618D02*
X100618704Y-65361427D01*
X100618704Y-65361427D02*
X100542514Y-65385237D01*
X100542514Y-65385237D02*
X100390133Y-65409046D01*
X100390133Y-65409046D02*
X100199657Y-65409046D01*
X100199657Y-65409046D02*
X100047276Y-65385237D01*
X100047276Y-65385237D02*
X99971085Y-65361427D01*
X99971085Y-65361427D02*
X99932990Y-65337618D01*
X99932990Y-65337618D02*
X99894895Y-65289999D01*
X99971085Y-64932856D02*
X99932990Y-64909047D01*
X99932990Y-64909047D02*
X99894895Y-64861428D01*
X99894895Y-64861428D02*
X99894895Y-64742380D01*
X99894895Y-64742380D02*
X99932990Y-64694761D01*
X99932990Y-64694761D02*
X99971085Y-64670952D01*
X99971085Y-64670952D02*
X100047276Y-64647142D01*
X100047276Y-64647142D02*
X100123466Y-64647142D01*
X100123466Y-64647142D02*
X100237752Y-64670952D01*
X100237752Y-64670952D02*
X100694895Y-64956666D01*
X100694895Y-64956666D02*
X100694895Y-64647142D01*
X100771085Y-64551905D02*
X100771085Y-64170952D01*
X100694895Y-64051905D02*
X99894895Y-64051905D01*
X99894895Y-64051905D02*
X99894895Y-63861429D01*
X99894895Y-63861429D02*
X99932990Y-63813810D01*
X99932990Y-63813810D02*
X99971085Y-63790000D01*
X99971085Y-63790000D02*
X100047276Y-63766191D01*
X100047276Y-63766191D02*
X100161561Y-63766191D01*
X100161561Y-63766191D02*
X100237752Y-63790000D01*
X100237752Y-63790000D02*
X100275847Y-63813810D01*
X100275847Y-63813810D02*
X100313942Y-63861429D01*
X100313942Y-63861429D02*
X100313942Y-64051905D01*
X100694895Y-63551905D02*
X100161561Y-63551905D01*
X99894895Y-63551905D02*
X99932990Y-63575714D01*
X99932990Y-63575714D02*
X99971085Y-63551905D01*
X99971085Y-63551905D02*
X99932990Y-63528095D01*
X99932990Y-63528095D02*
X99894895Y-63551905D01*
X99894895Y-63551905D02*
X99971085Y-63551905D01*
X100161561Y-63313810D02*
X100694895Y-63313810D01*
X100237752Y-63313810D02*
X100199657Y-63290000D01*
X100199657Y-63290000D02*
X100161561Y-63242381D01*
X100161561Y-63242381D02*
X100161561Y-63170953D01*
X100161561Y-63170953D02*
X100199657Y-63123334D01*
X100199657Y-63123334D02*
X100275847Y-63099524D01*
X100275847Y-63099524D02*
X100694895Y-63099524D01*
D10*
X93833333Y-102069819D02*
X93500000Y-101593628D01*
X93261905Y-102069819D02*
X93261905Y-101069819D01*
X93261905Y-101069819D02*
X93642857Y-101069819D01*
X93642857Y-101069819D02*
X93738095Y-101117438D01*
X93738095Y-101117438D02*
X93785714Y-101165057D01*
X93785714Y-101165057D02*
X93833333Y-101260295D01*
X93833333Y-101260295D02*
X93833333Y-101403152D01*
X93833333Y-101403152D02*
X93785714Y-101498390D01*
X93785714Y-101498390D02*
X93738095Y-101546009D01*
X93738095Y-101546009D02*
X93642857Y-101593628D01*
X93642857Y-101593628D02*
X93261905Y-101593628D01*
X94214286Y-101165057D02*
X94261905Y-101117438D01*
X94261905Y-101117438D02*
X94357143Y-101069819D01*
X94357143Y-101069819D02*
X94595238Y-101069819D01*
X94595238Y-101069819D02*
X94690476Y-101117438D01*
X94690476Y-101117438D02*
X94738095Y-101165057D01*
X94738095Y-101165057D02*
X94785714Y-101260295D01*
X94785714Y-101260295D02*
X94785714Y-101355533D01*
X94785714Y-101355533D02*
X94738095Y-101498390D01*
X94738095Y-101498390D02*
X94166667Y-102069819D01*
X94166667Y-102069819D02*
X94785714Y-102069819D01*
D11*
X91432143Y-101164895D02*
X91741667Y-101164895D01*
X91741667Y-101164895D02*
X91575000Y-101469657D01*
X91575000Y-101469657D02*
X91646429Y-101469657D01*
X91646429Y-101469657D02*
X91694048Y-101507752D01*
X91694048Y-101507752D02*
X91717857Y-101545847D01*
X91717857Y-101545847D02*
X91741667Y-101622038D01*
X91741667Y-101622038D02*
X91741667Y-101812514D01*
X91741667Y-101812514D02*
X91717857Y-101888704D01*
X91717857Y-101888704D02*
X91694048Y-101926800D01*
X91694048Y-101926800D02*
X91646429Y-101964895D01*
X91646429Y-101964895D02*
X91503572Y-101964895D01*
X91503572Y-101964895D02*
X91455953Y-101926800D01*
X91455953Y-101926800D02*
X91432143Y-101888704D01*
X91908333Y-101164895D02*
X92217857Y-101164895D01*
X92217857Y-101164895D02*
X92051190Y-101469657D01*
X92051190Y-101469657D02*
X92122619Y-101469657D01*
X92122619Y-101469657D02*
X92170238Y-101507752D01*
X92170238Y-101507752D02*
X92194047Y-101545847D01*
X92194047Y-101545847D02*
X92217857Y-101622038D01*
X92217857Y-101622038D02*
X92217857Y-101812514D01*
X92217857Y-101812514D02*
X92194047Y-101888704D01*
X92194047Y-101888704D02*
X92170238Y-101926800D01*
X92170238Y-101926800D02*
X92122619Y-101964895D01*
X92122619Y-101964895D02*
X91979762Y-101964895D01*
X91979762Y-101964895D02*
X91932143Y-101926800D01*
X91932143Y-101926800D02*
X91908333Y-101888704D01*
X92527380Y-101164895D02*
X92574999Y-101164895D01*
X92574999Y-101164895D02*
X92622618Y-101202990D01*
X92622618Y-101202990D02*
X92646428Y-101241085D01*
X92646428Y-101241085D02*
X92670237Y-101317276D01*
X92670237Y-101317276D02*
X92694047Y-101469657D01*
X92694047Y-101469657D02*
X92694047Y-101660133D01*
X92694047Y-101660133D02*
X92670237Y-101812514D01*
X92670237Y-101812514D02*
X92646428Y-101888704D01*
X92646428Y-101888704D02*
X92622618Y-101926800D01*
X92622618Y-101926800D02*
X92574999Y-101964895D01*
X92574999Y-101964895D02*
X92527380Y-101964895D01*
X92527380Y-101964895D02*
X92479761Y-101926800D01*
X92479761Y-101926800D02*
X92455952Y-101888704D01*
X92455952Y-101888704D02*
X92432142Y-101812514D01*
X92432142Y-101812514D02*
X92408333Y-101660133D01*
X92408333Y-101660133D02*
X92408333Y-101469657D01*
X92408333Y-101469657D02*
X92432142Y-101317276D01*
X92432142Y-101317276D02*
X92455952Y-101241085D01*
X92455952Y-101241085D02*
X92479761Y-101202990D01*
X92479761Y-101202990D02*
X92527380Y-101164895D01*
D10*
X80401666Y-92512319D02*
X80401666Y-93226604D01*
X80401666Y-93226604D02*
X80354047Y-93369461D01*
X80354047Y-93369461D02*
X80258809Y-93464700D01*
X80258809Y-93464700D02*
X80115952Y-93512319D01*
X80115952Y-93512319D02*
X80020714Y-93512319D01*
X81401666Y-93512319D02*
X80830238Y-93512319D01*
X81115952Y-93512319D02*
X81115952Y-92512319D01*
X81115952Y-92512319D02*
X81020714Y-92655176D01*
X81020714Y-92655176D02*
X80925476Y-92750414D01*
X80925476Y-92750414D02*
X80830238Y-92798033D01*
D11*
X77383096Y-81860847D02*
X77454524Y-81898942D01*
X77454524Y-81898942D02*
X77478334Y-81937038D01*
X77478334Y-81937038D02*
X77502143Y-82013228D01*
X77502143Y-82013228D02*
X77502143Y-82127514D01*
X77502143Y-82127514D02*
X77478334Y-82203704D01*
X77478334Y-82203704D02*
X77454524Y-82241800D01*
X77454524Y-82241800D02*
X77406905Y-82279895D01*
X77406905Y-82279895D02*
X77216429Y-82279895D01*
X77216429Y-82279895D02*
X77216429Y-81479895D01*
X77216429Y-81479895D02*
X77383096Y-81479895D01*
X77383096Y-81479895D02*
X77430715Y-81517990D01*
X77430715Y-81517990D02*
X77454524Y-81556085D01*
X77454524Y-81556085D02*
X77478334Y-81632276D01*
X77478334Y-81632276D02*
X77478334Y-81708466D01*
X77478334Y-81708466D02*
X77454524Y-81784657D01*
X77454524Y-81784657D02*
X77430715Y-81822752D01*
X77430715Y-81822752D02*
X77383096Y-81860847D01*
X77383096Y-81860847D02*
X77216429Y-81860847D01*
X77930715Y-82279895D02*
X77930715Y-81860847D01*
X77930715Y-81860847D02*
X77906905Y-81784657D01*
X77906905Y-81784657D02*
X77859286Y-81746561D01*
X77859286Y-81746561D02*
X77764048Y-81746561D01*
X77764048Y-81746561D02*
X77716429Y-81784657D01*
X77930715Y-82241800D02*
X77883096Y-82279895D01*
X77883096Y-82279895D02*
X77764048Y-82279895D01*
X77764048Y-82279895D02*
X77716429Y-82241800D01*
X77716429Y-82241800D02*
X77692620Y-82165609D01*
X77692620Y-82165609D02*
X77692620Y-82089419D01*
X77692620Y-82089419D02*
X77716429Y-82013228D01*
X77716429Y-82013228D02*
X77764048Y-81975133D01*
X77764048Y-81975133D02*
X77883096Y-81975133D01*
X77883096Y-81975133D02*
X77930715Y-81937038D01*
X78168810Y-82279895D02*
X78168810Y-81746561D01*
X78168810Y-81898942D02*
X78192620Y-81822752D01*
X78192620Y-81822752D02*
X78216429Y-81784657D01*
X78216429Y-81784657D02*
X78264048Y-81746561D01*
X78264048Y-81746561D02*
X78311667Y-81746561D01*
X78478334Y-82279895D02*
X78478334Y-81746561D01*
X78478334Y-81898942D02*
X78502144Y-81822752D01*
X78502144Y-81822752D02*
X78525953Y-81784657D01*
X78525953Y-81784657D02*
X78573572Y-81746561D01*
X78573572Y-81746561D02*
X78621191Y-81746561D01*
X78978334Y-82241800D02*
X78930715Y-82279895D01*
X78930715Y-82279895D02*
X78835477Y-82279895D01*
X78835477Y-82279895D02*
X78787858Y-82241800D01*
X78787858Y-82241800D02*
X78764049Y-82165609D01*
X78764049Y-82165609D02*
X78764049Y-81860847D01*
X78764049Y-81860847D02*
X78787858Y-81784657D01*
X78787858Y-81784657D02*
X78835477Y-81746561D01*
X78835477Y-81746561D02*
X78930715Y-81746561D01*
X78930715Y-81746561D02*
X78978334Y-81784657D01*
X78978334Y-81784657D02*
X79002144Y-81860847D01*
X79002144Y-81860847D02*
X79002144Y-81937038D01*
X79002144Y-81937038D02*
X78764049Y-82013228D01*
X79287858Y-82279895D02*
X79240239Y-82241800D01*
X79240239Y-82241800D02*
X79216429Y-82165609D01*
X79216429Y-82165609D02*
X79216429Y-81479895D01*
X79359287Y-82356085D02*
X79740239Y-82356085D01*
X80002143Y-81479895D02*
X80002143Y-82051323D01*
X80002143Y-82051323D02*
X79978334Y-82165609D01*
X79978334Y-82165609D02*
X79930715Y-82241800D01*
X79930715Y-82241800D02*
X79859286Y-82279895D01*
X79859286Y-82279895D02*
X79811667Y-82279895D01*
X80454524Y-82279895D02*
X80454524Y-81860847D01*
X80454524Y-81860847D02*
X80430714Y-81784657D01*
X80430714Y-81784657D02*
X80383095Y-81746561D01*
X80383095Y-81746561D02*
X80287857Y-81746561D01*
X80287857Y-81746561D02*
X80240238Y-81784657D01*
X80454524Y-82241800D02*
X80406905Y-82279895D01*
X80406905Y-82279895D02*
X80287857Y-82279895D01*
X80287857Y-82279895D02*
X80240238Y-82241800D01*
X80240238Y-82241800D02*
X80216429Y-82165609D01*
X80216429Y-82165609D02*
X80216429Y-82089419D01*
X80216429Y-82089419D02*
X80240238Y-82013228D01*
X80240238Y-82013228D02*
X80287857Y-81975133D01*
X80287857Y-81975133D02*
X80406905Y-81975133D01*
X80406905Y-81975133D02*
X80454524Y-81937038D01*
X80906905Y-82241800D02*
X80859286Y-82279895D01*
X80859286Y-82279895D02*
X80764048Y-82279895D01*
X80764048Y-82279895D02*
X80716429Y-82241800D01*
X80716429Y-82241800D02*
X80692619Y-82203704D01*
X80692619Y-82203704D02*
X80668810Y-82127514D01*
X80668810Y-82127514D02*
X80668810Y-81898942D01*
X80668810Y-81898942D02*
X80692619Y-81822752D01*
X80692619Y-81822752D02*
X80716429Y-81784657D01*
X80716429Y-81784657D02*
X80764048Y-81746561D01*
X80764048Y-81746561D02*
X80859286Y-81746561D01*
X80859286Y-81746561D02*
X80906905Y-81784657D01*
X81121190Y-82279895D02*
X81121190Y-81479895D01*
X81168809Y-81975133D02*
X81311666Y-82279895D01*
X81311666Y-81746561D02*
X81121190Y-82051323D01*
X81406905Y-82356085D02*
X81787857Y-82356085D01*
X81883095Y-82241800D02*
X81954523Y-82279895D01*
X81954523Y-82279895D02*
X82073571Y-82279895D01*
X82073571Y-82279895D02*
X82121190Y-82241800D01*
X82121190Y-82241800D02*
X82144999Y-82203704D01*
X82144999Y-82203704D02*
X82168809Y-82127514D01*
X82168809Y-82127514D02*
X82168809Y-82051323D01*
X82168809Y-82051323D02*
X82144999Y-81975133D01*
X82144999Y-81975133D02*
X82121190Y-81937038D01*
X82121190Y-81937038D02*
X82073571Y-81898942D01*
X82073571Y-81898942D02*
X81978333Y-81860847D01*
X81978333Y-81860847D02*
X81930714Y-81822752D01*
X81930714Y-81822752D02*
X81906904Y-81784657D01*
X81906904Y-81784657D02*
X81883095Y-81708466D01*
X81883095Y-81708466D02*
X81883095Y-81632276D01*
X81883095Y-81632276D02*
X81906904Y-81556085D01*
X81906904Y-81556085D02*
X81930714Y-81517990D01*
X81930714Y-81517990D02*
X81978333Y-81479895D01*
X81978333Y-81479895D02*
X82097380Y-81479895D01*
X82097380Y-81479895D02*
X82168809Y-81517990D01*
X82335475Y-81746561D02*
X82430713Y-82279895D01*
X82430713Y-82279895D02*
X82525951Y-81898942D01*
X82525951Y-81898942D02*
X82621189Y-82279895D01*
X82621189Y-82279895D02*
X82716427Y-81746561D01*
X82906904Y-82279895D02*
X82906904Y-81746561D01*
X82906904Y-81479895D02*
X82883095Y-81517990D01*
X82883095Y-81517990D02*
X82906904Y-81556085D01*
X82906904Y-81556085D02*
X82930714Y-81517990D01*
X82930714Y-81517990D02*
X82906904Y-81479895D01*
X82906904Y-81479895D02*
X82906904Y-81556085D01*
X83073571Y-81746561D02*
X83264047Y-81746561D01*
X83144999Y-81479895D02*
X83144999Y-82165609D01*
X83144999Y-82165609D02*
X83168809Y-82241800D01*
X83168809Y-82241800D02*
X83216428Y-82279895D01*
X83216428Y-82279895D02*
X83264047Y-82279895D01*
X83644999Y-82241800D02*
X83597380Y-82279895D01*
X83597380Y-82279895D02*
X83502142Y-82279895D01*
X83502142Y-82279895D02*
X83454523Y-82241800D01*
X83454523Y-82241800D02*
X83430713Y-82203704D01*
X83430713Y-82203704D02*
X83406904Y-82127514D01*
X83406904Y-82127514D02*
X83406904Y-81898942D01*
X83406904Y-81898942D02*
X83430713Y-81822752D01*
X83430713Y-81822752D02*
X83454523Y-81784657D01*
X83454523Y-81784657D02*
X83502142Y-81746561D01*
X83502142Y-81746561D02*
X83597380Y-81746561D01*
X83597380Y-81746561D02*
X83644999Y-81784657D01*
X83859284Y-82279895D02*
X83859284Y-81479895D01*
X84073570Y-82279895D02*
X84073570Y-81860847D01*
X84073570Y-81860847D02*
X84049760Y-81784657D01*
X84049760Y-81784657D02*
X84002141Y-81746561D01*
X84002141Y-81746561D02*
X83930713Y-81746561D01*
X83930713Y-81746561D02*
X83883094Y-81784657D01*
X83883094Y-81784657D02*
X83859284Y-81822752D01*
D10*
X79883095Y-93919819D02*
X79883095Y-94729342D01*
X79883095Y-94729342D02*
X79930714Y-94824580D01*
X79930714Y-94824580D02*
X79978333Y-94872200D01*
X79978333Y-94872200D02*
X80073571Y-94919819D01*
X80073571Y-94919819D02*
X80264047Y-94919819D01*
X80264047Y-94919819D02*
X80359285Y-94872200D01*
X80359285Y-94872200D02*
X80406904Y-94824580D01*
X80406904Y-94824580D02*
X80454523Y-94729342D01*
X80454523Y-94729342D02*
X80454523Y-93919819D01*
X80883095Y-94015057D02*
X80930714Y-93967438D01*
X80930714Y-93967438D02*
X81025952Y-93919819D01*
X81025952Y-93919819D02*
X81264047Y-93919819D01*
X81264047Y-93919819D02*
X81359285Y-93967438D01*
X81359285Y-93967438D02*
X81406904Y-94015057D01*
X81406904Y-94015057D02*
X81454523Y-94110295D01*
X81454523Y-94110295D02*
X81454523Y-94205533D01*
X81454523Y-94205533D02*
X81406904Y-94348390D01*
X81406904Y-94348390D02*
X80835476Y-94919819D01*
X80835476Y-94919819D02*
X81454523Y-94919819D01*
D11*
X78133096Y-101599895D02*
X77895001Y-101599895D01*
X77895001Y-101599895D02*
X77895001Y-100799895D01*
X78299763Y-101599895D02*
X78299763Y-100799895D01*
X78299763Y-100799895D02*
X78466430Y-101371323D01*
X78466430Y-101371323D02*
X78633096Y-100799895D01*
X78633096Y-100799895D02*
X78633096Y-101599895D01*
X78823573Y-100799895D02*
X79133097Y-100799895D01*
X79133097Y-100799895D02*
X78966430Y-101104657D01*
X78966430Y-101104657D02*
X79037859Y-101104657D01*
X79037859Y-101104657D02*
X79085478Y-101142752D01*
X79085478Y-101142752D02*
X79109287Y-101180847D01*
X79109287Y-101180847D02*
X79133097Y-101257038D01*
X79133097Y-101257038D02*
X79133097Y-101447514D01*
X79133097Y-101447514D02*
X79109287Y-101523704D01*
X79109287Y-101523704D02*
X79085478Y-101561800D01*
X79085478Y-101561800D02*
X79037859Y-101599895D01*
X79037859Y-101599895D02*
X78895002Y-101599895D01*
X78895002Y-101599895D02*
X78847383Y-101561800D01*
X78847383Y-101561800D02*
X78823573Y-101523704D01*
X79609287Y-101599895D02*
X79323573Y-101599895D01*
X79466430Y-101599895D02*
X79466430Y-100799895D01*
X79466430Y-100799895D02*
X79418811Y-100914180D01*
X79418811Y-100914180D02*
X79371192Y-100990371D01*
X79371192Y-100990371D02*
X79323573Y-101028466D01*
X79775953Y-100799895D02*
X80109286Y-100799895D01*
X80109286Y-100799895D02*
X79895001Y-101599895D01*
X80180715Y-101676085D02*
X80561667Y-101676085D01*
X80609286Y-100799895D02*
X80895000Y-100799895D01*
X80752143Y-101599895D02*
X80752143Y-100799895D01*
X81156904Y-100799895D02*
X81252142Y-100799895D01*
X81252142Y-100799895D02*
X81299761Y-100837990D01*
X81299761Y-100837990D02*
X81347380Y-100914180D01*
X81347380Y-100914180D02*
X81371190Y-101066561D01*
X81371190Y-101066561D02*
X81371190Y-101333228D01*
X81371190Y-101333228D02*
X81347380Y-101485609D01*
X81347380Y-101485609D02*
X81299761Y-101561800D01*
X81299761Y-101561800D02*
X81252142Y-101599895D01*
X81252142Y-101599895D02*
X81156904Y-101599895D01*
X81156904Y-101599895D02*
X81109285Y-101561800D01*
X81109285Y-101561800D02*
X81061666Y-101485609D01*
X81061666Y-101485609D02*
X81037857Y-101333228D01*
X81037857Y-101333228D02*
X81037857Y-101066561D01*
X81037857Y-101066561D02*
X81061666Y-100914180D01*
X81061666Y-100914180D02*
X81109285Y-100837990D01*
X81109285Y-100837990D02*
X81156904Y-100799895D01*
X81585476Y-101295133D02*
X81966429Y-101295133D01*
X82180715Y-100876085D02*
X82204524Y-100837990D01*
X82204524Y-100837990D02*
X82252143Y-100799895D01*
X82252143Y-100799895D02*
X82371191Y-100799895D01*
X82371191Y-100799895D02*
X82418810Y-100837990D01*
X82418810Y-100837990D02*
X82442619Y-100876085D01*
X82442619Y-100876085D02*
X82466429Y-100952276D01*
X82466429Y-100952276D02*
X82466429Y-101028466D01*
X82466429Y-101028466D02*
X82442619Y-101142752D01*
X82442619Y-101142752D02*
X82156905Y-101599895D01*
X82156905Y-101599895D02*
X82466429Y-101599895D01*
X82656905Y-100876085D02*
X82680714Y-100837990D01*
X82680714Y-100837990D02*
X82728333Y-100799895D01*
X82728333Y-100799895D02*
X82847381Y-100799895D01*
X82847381Y-100799895D02*
X82895000Y-100837990D01*
X82895000Y-100837990D02*
X82918809Y-100876085D01*
X82918809Y-100876085D02*
X82942619Y-100952276D01*
X82942619Y-100952276D02*
X82942619Y-101028466D01*
X82942619Y-101028466D02*
X82918809Y-101142752D01*
X82918809Y-101142752D02*
X82633095Y-101599895D01*
X82633095Y-101599895D02*
X82942619Y-101599895D01*
X83252142Y-100799895D02*
X83299761Y-100799895D01*
X83299761Y-100799895D02*
X83347380Y-100837990D01*
X83347380Y-100837990D02*
X83371190Y-100876085D01*
X83371190Y-100876085D02*
X83394999Y-100952276D01*
X83394999Y-100952276D02*
X83418809Y-101104657D01*
X83418809Y-101104657D02*
X83418809Y-101295133D01*
X83418809Y-101295133D02*
X83394999Y-101447514D01*
X83394999Y-101447514D02*
X83371190Y-101523704D01*
X83371190Y-101523704D02*
X83347380Y-101561800D01*
X83347380Y-101561800D02*
X83299761Y-101599895D01*
X83299761Y-101599895D02*
X83252142Y-101599895D01*
X83252142Y-101599895D02*
X83204523Y-101561800D01*
X83204523Y-101561800D02*
X83180714Y-101523704D01*
X83180714Y-101523704D02*
X83156904Y-101447514D01*
X83156904Y-101447514D02*
X83133095Y-101295133D01*
X83133095Y-101295133D02*
X83133095Y-101104657D01*
X83133095Y-101104657D02*
X83156904Y-100952276D01*
X83156904Y-100952276D02*
X83180714Y-100876085D01*
X83180714Y-100876085D02*
X83204523Y-100837990D01*
X83204523Y-100837990D02*
X83252142Y-100799895D01*
D10*
X94791905Y-83489819D02*
X94791905Y-82489819D01*
X94791905Y-82489819D02*
X95030000Y-82489819D01*
X95030000Y-82489819D02*
X95172857Y-82537438D01*
X95172857Y-82537438D02*
X95268095Y-82632676D01*
X95268095Y-82632676D02*
X95315714Y-82727914D01*
X95315714Y-82727914D02*
X95363333Y-82918390D01*
X95363333Y-82918390D02*
X95363333Y-83061247D01*
X95363333Y-83061247D02*
X95315714Y-83251723D01*
X95315714Y-83251723D02*
X95268095Y-83346961D01*
X95268095Y-83346961D02*
X95172857Y-83442200D01*
X95172857Y-83442200D02*
X95030000Y-83489819D01*
X95030000Y-83489819D02*
X94791905Y-83489819D01*
X96315714Y-83489819D02*
X95744286Y-83489819D01*
X96030000Y-83489819D02*
X96030000Y-82489819D01*
X96030000Y-82489819D02*
X95934762Y-82632676D01*
X95934762Y-82632676D02*
X95839524Y-82727914D01*
X95839524Y-82727914D02*
X95744286Y-82775533D01*
D11*
X95208571Y-91319895D02*
X94970476Y-91319895D01*
X94970476Y-91319895D02*
X94970476Y-90519895D01*
X95375238Y-90900847D02*
X95541905Y-90900847D01*
X95613333Y-91319895D02*
X95375238Y-91319895D01*
X95375238Y-91319895D02*
X95375238Y-90519895D01*
X95375238Y-90519895D02*
X95613333Y-90519895D01*
X95827619Y-91319895D02*
X95827619Y-90519895D01*
X95827619Y-90519895D02*
X95946667Y-90519895D01*
X95946667Y-90519895D02*
X96018095Y-90557990D01*
X96018095Y-90557990D02*
X96065714Y-90634180D01*
X96065714Y-90634180D02*
X96089524Y-90710371D01*
X96089524Y-90710371D02*
X96113333Y-90862752D01*
X96113333Y-90862752D02*
X96113333Y-90977038D01*
X96113333Y-90977038D02*
X96089524Y-91129419D01*
X96089524Y-91129419D02*
X96065714Y-91205609D01*
X96065714Y-91205609D02*
X96018095Y-91281800D01*
X96018095Y-91281800D02*
X95946667Y-91319895D01*
X95946667Y-91319895D02*
X95827619Y-91319895D01*
D10*
X77784819Y-114633333D02*
X78499104Y-114633333D01*
X78499104Y-114633333D02*
X78641961Y-114680952D01*
X78641961Y-114680952D02*
X78737200Y-114776190D01*
X78737200Y-114776190D02*
X78784819Y-114919047D01*
X78784819Y-114919047D02*
X78784819Y-115014285D01*
X77784819Y-114252380D02*
X77784819Y-113633333D01*
X77784819Y-113633333D02*
X78165771Y-113966666D01*
X78165771Y-113966666D02*
X78165771Y-113823809D01*
X78165771Y-113823809D02*
X78213390Y-113728571D01*
X78213390Y-113728571D02*
X78261009Y-113680952D01*
X78261009Y-113680952D02*
X78356247Y-113633333D01*
X78356247Y-113633333D02*
X78594342Y-113633333D01*
X78594342Y-113633333D02*
X78689580Y-113680952D01*
X78689580Y-113680952D02*
X78737200Y-113728571D01*
X78737200Y-113728571D02*
X78784819Y-113823809D01*
X78784819Y-113823809D02*
X78784819Y-114109523D01*
X78784819Y-114109523D02*
X78737200Y-114204761D01*
X78737200Y-114204761D02*
X78689580Y-114252380D01*
D11*
X79895239Y-112048704D02*
X79871430Y-112086800D01*
X79871430Y-112086800D02*
X79800001Y-112124895D01*
X79800001Y-112124895D02*
X79752382Y-112124895D01*
X79752382Y-112124895D02*
X79680954Y-112086800D01*
X79680954Y-112086800D02*
X79633335Y-112010609D01*
X79633335Y-112010609D02*
X79609525Y-111934419D01*
X79609525Y-111934419D02*
X79585716Y-111782038D01*
X79585716Y-111782038D02*
X79585716Y-111667752D01*
X79585716Y-111667752D02*
X79609525Y-111515371D01*
X79609525Y-111515371D02*
X79633335Y-111439180D01*
X79633335Y-111439180D02*
X79680954Y-111362990D01*
X79680954Y-111362990D02*
X79752382Y-111324895D01*
X79752382Y-111324895D02*
X79800001Y-111324895D01*
X79800001Y-111324895D02*
X79871430Y-111362990D01*
X79871430Y-111362990D02*
X79895239Y-111401085D01*
X80180954Y-112124895D02*
X80133335Y-112086800D01*
X80133335Y-112086800D02*
X80109525Y-112048704D01*
X80109525Y-112048704D02*
X80085716Y-111972514D01*
X80085716Y-111972514D02*
X80085716Y-111743942D01*
X80085716Y-111743942D02*
X80109525Y-111667752D01*
X80109525Y-111667752D02*
X80133335Y-111629657D01*
X80133335Y-111629657D02*
X80180954Y-111591561D01*
X80180954Y-111591561D02*
X80252382Y-111591561D01*
X80252382Y-111591561D02*
X80300001Y-111629657D01*
X80300001Y-111629657D02*
X80323811Y-111667752D01*
X80323811Y-111667752D02*
X80347620Y-111743942D01*
X80347620Y-111743942D02*
X80347620Y-111972514D01*
X80347620Y-111972514D02*
X80323811Y-112048704D01*
X80323811Y-112048704D02*
X80300001Y-112086800D01*
X80300001Y-112086800D02*
X80252382Y-112124895D01*
X80252382Y-112124895D02*
X80180954Y-112124895D01*
X80561906Y-111591561D02*
X80561906Y-112124895D01*
X80561906Y-111667752D02*
X80585716Y-111629657D01*
X80585716Y-111629657D02*
X80633335Y-111591561D01*
X80633335Y-111591561D02*
X80704763Y-111591561D01*
X80704763Y-111591561D02*
X80752382Y-111629657D01*
X80752382Y-111629657D02*
X80776192Y-111705847D01*
X80776192Y-111705847D02*
X80776192Y-112124895D01*
X81014287Y-111591561D02*
X81014287Y-112124895D01*
X81014287Y-111667752D02*
X81038097Y-111629657D01*
X81038097Y-111629657D02*
X81085716Y-111591561D01*
X81085716Y-111591561D02*
X81157144Y-111591561D01*
X81157144Y-111591561D02*
X81204763Y-111629657D01*
X81204763Y-111629657D02*
X81228573Y-111705847D01*
X81228573Y-111705847D02*
X81228573Y-112124895D01*
X81347621Y-112201085D02*
X81728573Y-112201085D01*
X81942858Y-111324895D02*
X81990477Y-111324895D01*
X81990477Y-111324895D02*
X82038096Y-111362990D01*
X82038096Y-111362990D02*
X82061906Y-111401085D01*
X82061906Y-111401085D02*
X82085715Y-111477276D01*
X82085715Y-111477276D02*
X82109525Y-111629657D01*
X82109525Y-111629657D02*
X82109525Y-111820133D01*
X82109525Y-111820133D02*
X82085715Y-111972514D01*
X82085715Y-111972514D02*
X82061906Y-112048704D01*
X82061906Y-112048704D02*
X82038096Y-112086800D01*
X82038096Y-112086800D02*
X81990477Y-112124895D01*
X81990477Y-112124895D02*
X81942858Y-112124895D01*
X81942858Y-112124895D02*
X81895239Y-112086800D01*
X81895239Y-112086800D02*
X81871430Y-112048704D01*
X81871430Y-112048704D02*
X81847620Y-111972514D01*
X81847620Y-111972514D02*
X81823811Y-111820133D01*
X81823811Y-111820133D02*
X81823811Y-111629657D01*
X81823811Y-111629657D02*
X81847620Y-111477276D01*
X81847620Y-111477276D02*
X81871430Y-111401085D01*
X81871430Y-111401085D02*
X81895239Y-111362990D01*
X81895239Y-111362990D02*
X81942858Y-111324895D01*
X82585715Y-112124895D02*
X82300001Y-112124895D01*
X82442858Y-112124895D02*
X82442858Y-111324895D01*
X82442858Y-111324895D02*
X82395239Y-111439180D01*
X82395239Y-111439180D02*
X82347620Y-111515371D01*
X82347620Y-111515371D02*
X82300001Y-111553466D01*
X82752381Y-112124895D02*
X83014286Y-111591561D01*
X82752381Y-111591561D02*
X83014286Y-112124895D01*
X83300000Y-111324895D02*
X83347619Y-111324895D01*
X83347619Y-111324895D02*
X83395238Y-111362990D01*
X83395238Y-111362990D02*
X83419048Y-111401085D01*
X83419048Y-111401085D02*
X83442857Y-111477276D01*
X83442857Y-111477276D02*
X83466667Y-111629657D01*
X83466667Y-111629657D02*
X83466667Y-111820133D01*
X83466667Y-111820133D02*
X83442857Y-111972514D01*
X83442857Y-111972514D02*
X83419048Y-112048704D01*
X83419048Y-112048704D02*
X83395238Y-112086800D01*
X83395238Y-112086800D02*
X83347619Y-112124895D01*
X83347619Y-112124895D02*
X83300000Y-112124895D01*
X83300000Y-112124895D02*
X83252381Y-112086800D01*
X83252381Y-112086800D02*
X83228572Y-112048704D01*
X83228572Y-112048704D02*
X83204762Y-111972514D01*
X83204762Y-111972514D02*
X83180953Y-111820133D01*
X83180953Y-111820133D02*
X83180953Y-111629657D01*
X83180953Y-111629657D02*
X83204762Y-111477276D01*
X83204762Y-111477276D02*
X83228572Y-111401085D01*
X83228572Y-111401085D02*
X83252381Y-111362990D01*
X83252381Y-111362990D02*
X83300000Y-111324895D01*
X83633333Y-111324895D02*
X83942857Y-111324895D01*
X83942857Y-111324895D02*
X83776190Y-111629657D01*
X83776190Y-111629657D02*
X83847619Y-111629657D01*
X83847619Y-111629657D02*
X83895238Y-111667752D01*
X83895238Y-111667752D02*
X83919047Y-111705847D01*
X83919047Y-111705847D02*
X83942857Y-111782038D01*
X83942857Y-111782038D02*
X83942857Y-111972514D01*
X83942857Y-111972514D02*
X83919047Y-112048704D01*
X83919047Y-112048704D02*
X83895238Y-112086800D01*
X83895238Y-112086800D02*
X83847619Y-112124895D01*
X83847619Y-112124895D02*
X83704762Y-112124895D01*
X83704762Y-112124895D02*
X83657143Y-112086800D01*
X83657143Y-112086800D02*
X83633333Y-112048704D01*
X84038095Y-112201085D02*
X84419047Y-112201085D01*
X84538094Y-112124895D02*
X84538094Y-111324895D01*
X84538094Y-111324895D02*
X84728570Y-111324895D01*
X84728570Y-111324895D02*
X84776189Y-111362990D01*
X84776189Y-111362990D02*
X84799999Y-111401085D01*
X84799999Y-111401085D02*
X84823808Y-111477276D01*
X84823808Y-111477276D02*
X84823808Y-111591561D01*
X84823808Y-111591561D02*
X84799999Y-111667752D01*
X84799999Y-111667752D02*
X84776189Y-111705847D01*
X84776189Y-111705847D02*
X84728570Y-111743942D01*
X84728570Y-111743942D02*
X84538094Y-111743942D01*
X85038094Y-112124895D02*
X85038094Y-111591561D01*
X85038094Y-111324895D02*
X85014285Y-111362990D01*
X85014285Y-111362990D02*
X85038094Y-111401085D01*
X85038094Y-111401085D02*
X85061904Y-111362990D01*
X85061904Y-111362990D02*
X85038094Y-111324895D01*
X85038094Y-111324895D02*
X85038094Y-111401085D01*
X85276189Y-111591561D02*
X85276189Y-112124895D01*
X85276189Y-111667752D02*
X85299999Y-111629657D01*
X85299999Y-111629657D02*
X85347618Y-111591561D01*
X85347618Y-111591561D02*
X85419046Y-111591561D01*
X85419046Y-111591561D02*
X85466665Y-111629657D01*
X85466665Y-111629657D02*
X85490475Y-111705847D01*
X85490475Y-111705847D02*
X85490475Y-112124895D01*
D10*
X87463333Y-96974819D02*
X87130000Y-96498628D01*
X86891905Y-96974819D02*
X86891905Y-95974819D01*
X86891905Y-95974819D02*
X87272857Y-95974819D01*
X87272857Y-95974819D02*
X87368095Y-96022438D01*
X87368095Y-96022438D02*
X87415714Y-96070057D01*
X87415714Y-96070057D02*
X87463333Y-96165295D01*
X87463333Y-96165295D02*
X87463333Y-96308152D01*
X87463333Y-96308152D02*
X87415714Y-96403390D01*
X87415714Y-96403390D02*
X87368095Y-96451009D01*
X87368095Y-96451009D02*
X87272857Y-96498628D01*
X87272857Y-96498628D02*
X86891905Y-96498628D01*
X87796667Y-95974819D02*
X88415714Y-95974819D01*
X88415714Y-95974819D02*
X88082381Y-96355771D01*
X88082381Y-96355771D02*
X88225238Y-96355771D01*
X88225238Y-96355771D02*
X88320476Y-96403390D01*
X88320476Y-96403390D02*
X88368095Y-96451009D01*
X88368095Y-96451009D02*
X88415714Y-96546247D01*
X88415714Y-96546247D02*
X88415714Y-96784342D01*
X88415714Y-96784342D02*
X88368095Y-96879580D01*
X88368095Y-96879580D02*
X88320476Y-96927200D01*
X88320476Y-96927200D02*
X88225238Y-96974819D01*
X88225238Y-96974819D02*
X87939524Y-96974819D01*
X87939524Y-96974819D02*
X87844286Y-96927200D01*
X87844286Y-96927200D02*
X87796667Y-96879580D01*
D11*
X87272857Y-97354895D02*
X87034762Y-97354895D01*
X87034762Y-97354895D02*
X87010953Y-97735847D01*
X87010953Y-97735847D02*
X87034762Y-97697752D01*
X87034762Y-97697752D02*
X87082381Y-97659657D01*
X87082381Y-97659657D02*
X87201429Y-97659657D01*
X87201429Y-97659657D02*
X87249048Y-97697752D01*
X87249048Y-97697752D02*
X87272857Y-97735847D01*
X87272857Y-97735847D02*
X87296667Y-97812038D01*
X87296667Y-97812038D02*
X87296667Y-98002514D01*
X87296667Y-98002514D02*
X87272857Y-98078704D01*
X87272857Y-98078704D02*
X87249048Y-98116800D01*
X87249048Y-98116800D02*
X87201429Y-98154895D01*
X87201429Y-98154895D02*
X87082381Y-98154895D01*
X87082381Y-98154895D02*
X87034762Y-98116800D01*
X87034762Y-98116800D02*
X87010953Y-98078704D01*
X87725238Y-97354895D02*
X87630000Y-97354895D01*
X87630000Y-97354895D02*
X87582381Y-97392990D01*
X87582381Y-97392990D02*
X87558571Y-97431085D01*
X87558571Y-97431085D02*
X87510952Y-97545371D01*
X87510952Y-97545371D02*
X87487143Y-97697752D01*
X87487143Y-97697752D02*
X87487143Y-98002514D01*
X87487143Y-98002514D02*
X87510952Y-98078704D01*
X87510952Y-98078704D02*
X87534762Y-98116800D01*
X87534762Y-98116800D02*
X87582381Y-98154895D01*
X87582381Y-98154895D02*
X87677619Y-98154895D01*
X87677619Y-98154895D02*
X87725238Y-98116800D01*
X87725238Y-98116800D02*
X87749047Y-98078704D01*
X87749047Y-98078704D02*
X87772857Y-98002514D01*
X87772857Y-98002514D02*
X87772857Y-97812038D01*
X87772857Y-97812038D02*
X87749047Y-97735847D01*
X87749047Y-97735847D02*
X87725238Y-97697752D01*
X87725238Y-97697752D02*
X87677619Y-97659657D01*
X87677619Y-97659657D02*
X87582381Y-97659657D01*
X87582381Y-97659657D02*
X87534762Y-97697752D01*
X87534762Y-97697752D02*
X87510952Y-97735847D01*
X87510952Y-97735847D02*
X87487143Y-97812038D01*
X88082380Y-97354895D02*
X88129999Y-97354895D01*
X88129999Y-97354895D02*
X88177618Y-97392990D01*
X88177618Y-97392990D02*
X88201428Y-97431085D01*
X88201428Y-97431085D02*
X88225237Y-97507276D01*
X88225237Y-97507276D02*
X88249047Y-97659657D01*
X88249047Y-97659657D02*
X88249047Y-97850133D01*
X88249047Y-97850133D02*
X88225237Y-98002514D01*
X88225237Y-98002514D02*
X88201428Y-98078704D01*
X88201428Y-98078704D02*
X88177618Y-98116800D01*
X88177618Y-98116800D02*
X88129999Y-98154895D01*
X88129999Y-98154895D02*
X88082380Y-98154895D01*
X88082380Y-98154895D02*
X88034761Y-98116800D01*
X88034761Y-98116800D02*
X88010952Y-98078704D01*
X88010952Y-98078704D02*
X87987142Y-98002514D01*
X87987142Y-98002514D02*
X87963333Y-97850133D01*
X87963333Y-97850133D02*
X87963333Y-97659657D01*
X87963333Y-97659657D02*
X87987142Y-97507276D01*
X87987142Y-97507276D02*
X88010952Y-97431085D01*
X88010952Y-97431085D02*
X88034761Y-97392990D01*
X88034761Y-97392990D02*
X88082380Y-97354895D01*
D12*
%TO.C,C3*%
X81921000Y-102585000D02*
X83179000Y-102585000D01*
X81921000Y-104425000D02*
X83179000Y-104425000D01*
%TO.C,C2*%
X78131000Y-72105000D02*
X79389000Y-72105000D01*
X78131000Y-73945000D02*
X79389000Y-73945000D01*
%TO.C,R1*%
X96870000Y-93345000D02*
X95920000Y-93345000D01*
X95920000Y-94265000D02*
X95920000Y-92425000D01*
X95920000Y-92425000D02*
X92080000Y-92425000D01*
X92080000Y-94265000D02*
X95920000Y-94265000D01*
X92080000Y-92425000D02*
X92080000Y-94265000D01*
X91130000Y-93345000D02*
X92080000Y-93345000D01*
%TO.C,C1*%
X83191000Y-72105000D02*
X84449000Y-72105000D01*
X83191000Y-73945000D02*
X84449000Y-73945000D01*
%TO.C,J6*%
X101570000Y-109420000D02*
X102900000Y-109420000D01*
X101570000Y-110750000D02*
X101570000Y-109420000D01*
X101570000Y-112020000D02*
X101570000Y-114620000D01*
X101570000Y-112020000D02*
X104230000Y-112020000D01*
X101570000Y-114620000D02*
X104230000Y-114620000D01*
X104230000Y-112020000D02*
X104230000Y-114620000D01*
%TO.C,J2*%
X79330000Y-65465000D02*
X79330000Y-64135000D01*
X80660000Y-65465000D02*
X79330000Y-65465000D01*
X81930000Y-65465000D02*
X87070000Y-65465000D01*
X81930000Y-65465000D02*
X81930000Y-62805000D01*
X87070000Y-65465000D02*
X87070000Y-62805000D01*
X81930000Y-62805000D02*
X87070000Y-62805000D01*
%TO.C,J5*%
X88900000Y-62865000D02*
X88900000Y-70485000D01*
X88900000Y-70485000D02*
X99060000Y-70485000D01*
X99060000Y-62865000D02*
X88900000Y-62865000D01*
X99060000Y-69215000D02*
X88900000Y-69215000D01*
X99060000Y-70485000D02*
X99060000Y-62865000D01*
%TO.C,J7*%
X99060000Y-115570000D02*
X99060000Y-107950000D01*
X99060000Y-107950000D02*
X88900000Y-107950000D01*
X88900000Y-115570000D02*
X99060000Y-115570000D01*
X88900000Y-109220000D02*
X99060000Y-109220000D01*
X88900000Y-107950000D02*
X88900000Y-115570000D01*
D11*
%TO.C,S1*%
X98690000Y-77665000D02*
X98690000Y-77165000D01*
X98690000Y-77665000D02*
X98190000Y-77665000D01*
X98690000Y-73465000D02*
X98690000Y-73965000D01*
X98690000Y-73465000D02*
X98190000Y-73465000D01*
X86790000Y-77665000D02*
X87290000Y-77665000D01*
X86790000Y-77665000D02*
X86790000Y-77165000D01*
X86790000Y-73465000D02*
X87290000Y-73465000D01*
X86790000Y-73465000D02*
X86790000Y-73965000D01*
D12*
%TO.C,U1*%
X85765000Y-81065000D02*
X85765000Y-76424000D01*
X85765000Y-81065000D02*
X75525000Y-81065000D01*
X85765000Y-79555000D02*
X75525000Y-79555000D01*
X85765000Y-76424000D02*
X75525000Y-76424000D01*
X82495000Y-81065000D02*
X82495000Y-79555000D01*
X78794000Y-81065000D02*
X78794000Y-79555000D01*
X75525000Y-81065000D02*
X75525000Y-76424000D01*
%TO.C,J4*%
X101570000Y-63670000D02*
X102900000Y-63670000D01*
X101570000Y-65000000D02*
X101570000Y-63670000D01*
X101570000Y-66270000D02*
X101570000Y-68870000D01*
X101570000Y-66270000D02*
X104230000Y-66270000D01*
X101570000Y-68870000D02*
X104230000Y-68870000D01*
X104230000Y-66270000D02*
X104230000Y-68870000D01*
%TO.C,R2*%
X91130000Y-99695000D02*
X92080000Y-99695000D01*
X92080000Y-98775000D02*
X92080000Y-100615000D01*
X92080000Y-100615000D02*
X95920000Y-100615000D01*
X95920000Y-98775000D02*
X92080000Y-98775000D01*
X95920000Y-100615000D02*
X95920000Y-98775000D01*
X96870000Y-99695000D02*
X95920000Y-99695000D01*
%TO.C,J1*%
X75385000Y-82707500D02*
X90085000Y-82707500D01*
X75385000Y-91907500D02*
X75385000Y-82707500D01*
X84185000Y-91907500D02*
X75385000Y-91907500D01*
X89235000Y-82507500D02*
X90285000Y-82507500D01*
X90085000Y-82707500D02*
X90085000Y-85307500D01*
X90085000Y-89207500D02*
X90085000Y-91907500D01*
X90085000Y-91907500D02*
X88185000Y-91907500D01*
X90285000Y-83557500D02*
X90285000Y-82507500D01*
%TO.C,U2*%
X85765000Y-95465000D02*
X85765000Y-100106000D01*
X82496000Y-95465000D02*
X82496000Y-96975000D01*
X78795000Y-95465000D02*
X78795000Y-96975000D01*
X75525000Y-100106000D02*
X85765000Y-100106000D01*
X75525000Y-96975000D02*
X85765000Y-96975000D01*
X75525000Y-95465000D02*
X85765000Y-95465000D01*
X75525000Y-95465000D02*
X75525000Y-100106000D01*
%TO.C,D1*%
X92970000Y-85450000D02*
X92970000Y-88540000D01*
X98519999Y-86995462D02*
G75*
G03*
X92970001Y-85450170I-2989999J462D01*
G01*
X92970000Y-88539830D02*
G75*
G03*
X98520000Y-86994538I2560000J1544830D01*
G01*
X98030000Y-86995000D02*
G75*
G03*
X98030000Y-86995000I-2500000J0D01*
G01*
%TO.C,J3*%
X79330000Y-115630000D02*
X79330000Y-114300000D01*
X80660000Y-115630000D02*
X79330000Y-115630000D01*
X81930000Y-115630000D02*
X87070000Y-115630000D01*
X81930000Y-115630000D02*
X81930000Y-112970000D01*
X87070000Y-115630000D02*
X87070000Y-112970000D01*
X81930000Y-112970000D02*
X87070000Y-112970000D01*
%TO.C,R3*%
X96870000Y-96520000D02*
X95920000Y-96520000D01*
X95920000Y-97440000D02*
X95920000Y-95600000D01*
X95920000Y-95600000D02*
X92080000Y-95600000D01*
X92080000Y-97440000D02*
X95920000Y-97440000D01*
X92080000Y-95600000D02*
X92080000Y-97440000D01*
X91130000Y-96520000D02*
X92080000Y-96520000D01*
%TD*%
M02*
