M48
; DRILL file {KiCad 7.0.8-7.0.8~ubuntu22.04.1} date Thu 02 Nov 2023 06:59:35 PM
; FORMAT={-:-/ absolute / metric / decimal}
; #@! TF.CreationDate,2023-11-02T18:59:35-04:00
; #@! TF.GenerationSoftware,Kicad,Pcbnew,7.0.8-7.0.8~ubuntu22.04.1
; #@! TF.FileFunction,Plated,1,2,PTH
FMAT,2
METRIC
; #@! TA.AperFunction,Plated,PTH,ComponentDrill
T1C0.700
; #@! TA.AperFunction,Plated,PTH,ComponentDrill
T2C0.800
; #@! TA.AperFunction,Plated,PTH,ComponentDrill
T3C0.900
; #@! TA.AperFunction,Plated,PTH,ComponentDrill
T4C1.000
; #@! TA.AperFunction,Plated,PTH,ComponentDrill
T5C1.100
; #@! TA.AperFunction,Plated,PTH,ComponentDrill
T6C1.520
%
G90
G05
T1
X90.19Y-93.345
X90.19Y-96.52
X90.19Y-99.695
X97.81Y-93.345
X97.81Y-96.52
X97.81Y-99.695
T2
X77.51Y-73.025
X80.01Y-73.025
X81.3Y-103.505
X82.57Y-73.025
X83.8Y-103.505
X85.07Y-73.025
T3
X90.09Y-75.565
X92.59Y-75.565
X94.26Y-86.995
X95.09Y-75.565
X96.8Y-86.995
T4
X80.66Y-64.135
X80.66Y-114.3
X83.2Y-64.135
X83.2Y-114.3
X85.74Y-64.135
X85.74Y-114.3
X102.9Y-65.0
X102.9Y-67.54
X102.9Y-110.75
X102.9Y-113.29
T5
X78.105Y-77.795
X78.105Y-98.735
X80.645Y-77.795
X80.645Y-98.735
X83.185Y-77.795
X83.185Y-98.735
T6
X91.44Y-66.675
X91.44Y-111.76
X96.52Y-66.675
X96.52Y-111.76
T4
G00X83.185Y-86.307
M15
G01X83.185Y-88.307
M16
G05
G00X85.185Y-92.007
M15
G01X87.185Y-92.007
M16
G05
G00X89.185Y-86.307
M15
G01X89.185Y-88.307
M16
G05
T0
M30
