%TF.GenerationSoftware,KiCad,Pcbnew,7.0.8-7.0.8~ubuntu22.04.1*%
%TF.CreationDate,2023-11-02T18:58:55-04:00*%
%TF.ProjectId,kicad_psu,6b696361-645f-4707-9375-2e6b69636164,rev?*%
%TF.SameCoordinates,Original*%
%TF.FileFunction,Soldermask,Bot*%
%TF.FilePolarity,Negative*%
%FSLAX46Y46*%
G04 Gerber Fmt 4.6, Leading zero omitted, Abs format (unit mm)*
G04 Created by KiCad (PCBNEW 7.0.8-7.0.8~ubuntu22.04.1) date 2023-11-02 18:58:55*
%MOMM*%
%LPD*%
G01*
G04 APERTURE LIST*
G04 Aperture macros list*
%AMRoundRect*
0 Rectangle with rounded corners*
0 $1 Rounding radius*
0 $2 $3 $4 $5 $6 $7 $8 $9 X,Y pos of 4 corners*
0 Add a 4 corners polygon primitive as box body*
4,1,4,$2,$3,$4,$5,$6,$7,$8,$9,$2,$3,0*
0 Add four circle primitives for the rounded corners*
1,1,$1+$1,$2,$3*
1,1,$1+$1,$4,$5*
1,1,$1+$1,$6,$7*
1,1,$1+$1,$8,$9*
0 Add four rect primitives between the rounded corners*
20,1,$1+$1,$2,$3,$4,$5,0*
20,1,$1+$1,$4,$5,$6,$7,0*
20,1,$1+$1,$6,$7,$8,$9,0*
20,1,$1+$1,$8,$9,$2,$3,0*%
G04 Aperture macros list end*
%ADD10C,1.600000*%
%ADD11C,1.400000*%
%ADD12O,1.400000X1.400000*%
%ADD13R,1.700000X1.700000*%
%ADD14O,1.700000X1.700000*%
%ADD15R,3.000000X3.000000*%
%ADD16C,3.000000*%
%ADD17R,1.900000X1.900000*%
%ADD18C,1.900000*%
%ADD19R,1.905000X2.000000*%
%ADD20O,1.905000X2.000000*%
%ADD21R,3.500000X3.500000*%
%ADD22RoundRect,0.750000X-0.750000X-1.000000X0.750000X-1.000000X0.750000X1.000000X-0.750000X1.000000X0*%
%ADD23RoundRect,0.875000X-0.875000X-0.875000X0.875000X-0.875000X0.875000X0.875000X-0.875000X0.875000X0*%
%ADD24R,1.800000X1.800000*%
%ADD25C,1.800000*%
G04 APERTURE END LIST*
D10*
%TO.C,C3*%
X81300000Y-103505000D03*
X83800000Y-103505000D03*
%TD*%
%TO.C,C2*%
X77510000Y-73025000D03*
X80010000Y-73025000D03*
%TD*%
D11*
%TO.C,R1*%
X97810000Y-93345000D03*
D12*
X90190000Y-93345000D03*
%TD*%
D10*
%TO.C,C1*%
X82570000Y-73025000D03*
X85070000Y-73025000D03*
%TD*%
D13*
%TO.C,J6*%
X102900000Y-110750000D03*
D14*
X102900000Y-113290000D03*
%TD*%
D13*
%TO.C,J2*%
X80660000Y-64135000D03*
D14*
X83200000Y-64135000D03*
X85740000Y-64135000D03*
%TD*%
D15*
%TO.C,J5*%
X91440000Y-66675000D03*
D16*
X96520000Y-66675000D03*
%TD*%
D15*
%TO.C,J7*%
X96520000Y-111760000D03*
D16*
X91440000Y-111760000D03*
%TD*%
D17*
%TO.C,S1*%
X95090000Y-75565000D03*
D18*
X92590000Y-75565000D03*
X90090000Y-75565000D03*
%TD*%
D19*
%TO.C,U1*%
X83185000Y-77795000D03*
D20*
X80645000Y-77795000D03*
X78105000Y-77795000D03*
%TD*%
D13*
%TO.C,J4*%
X102900000Y-65000000D03*
D14*
X102900000Y-67540000D03*
%TD*%
D12*
%TO.C,R2*%
X90190000Y-99695000D03*
D11*
X97810000Y-99695000D03*
%TD*%
D21*
%TO.C,J1*%
X89185000Y-87307500D03*
D22*
X83185000Y-87307500D03*
D23*
X86185000Y-92007500D03*
%TD*%
D20*
%TO.C,U2*%
X83185000Y-98735000D03*
X80645000Y-98735000D03*
D19*
X78105000Y-98735000D03*
%TD*%
D24*
%TO.C,D1*%
X94260000Y-86995000D03*
D25*
X96800000Y-86995000D03*
%TD*%
D13*
%TO.C,J3*%
X80660000Y-114300000D03*
D14*
X83200000Y-114300000D03*
X85740000Y-114300000D03*
%TD*%
D12*
%TO.C,R3*%
X97810000Y-96520000D03*
D11*
X90190000Y-96520000D03*
%TD*%
M02*
